<?xml version="1.0" encoding="UTF-8"?>
<!DOCTYPE svg  PUBLIC '-//W3C//DTD SVG 1.1//EN'  'http://www.w3.org/Graphics/SVG/1.1/DTD/svg11.dtd'>
<svg width="388.06mm" height="282.22mm" clip-rule="evenodd" fill-rule="evenodd" image-rendering="optimizeQuality" shape-rendering="geometricPrecision" text-rendering="geometricPrecision" version="1.1" viewBox="0 0 38806 28222" xml:space="preserve" xmlns="http://www.w3.org/2000/svg">
 <defs>
  <style type="text/css">
   <![CDATA[
    .fil1 {fill:#FEFEFE}
    .fil0 {fill:#FEFEFE;fill-rule:nonzero}
    .fil9 {fill:#332C2B;fill-rule:nonzero}
    .fil14 {fill:#124E5E;fill-rule:nonzero}
    .fil17 {fill:#145361;fill-rule:nonzero}
    .fil8 {fill:#145566;fill-rule:nonzero}
    .fil6 {fill:#1A3151;fill-rule:nonzero}
    .fil19 {fill:#212940;fill-rule:nonzero}
    .fil10 {fill:#3ABABA;fill-rule:nonzero}
    .fil15 {fill:#4EC1C1;fill-rule:nonzero}
    .fil2 {fill:#809898;fill-rule:nonzero}
    .fil11 {fill:#9EA6AD;fill-rule:nonzero}
    .fil12 {fill:#A7C5BA;fill-rule:nonzero}
    .fil13 {fill:#D8B6A2;fill-rule:nonzero}
    .fil5 {fill:#E5D1BD;fill-rule:nonzero}
    .fil16 {fill:#EAAC40;fill-rule:nonzero}
    .fil3 {fill:#EAC5B0;fill-rule:nonzero}
    .fil4 {fill:#EB6044;fill-rule:nonzero}
    .fil18 {fill:#F7F7F8;fill-rule:nonzero}
    .fil7 {fill:white;fill-rule:nonzero}
   ]]>
  </style>
 </defs>
   <path class="fil0" d="m15329 25678c-6 0-11 0-17-1l-10759-440c-437-18-523-607-107-740 39-12 79-19 120-19l221-2 79-99c29-37 58-74 70-119 11-41 6-84 6-127 1-70 30-369 155-325 9 4 19 9 29 14 3-60 6-119 11-179-121-31-238-87-275-198-29-87 2-228 6-318 14-288 35-576 56-864 60-814 101-1639 251-2442 12-68 25-135 38-203l-499 59c-456 54-869-270-923-722l-551-4659c-53-453 273-863 729-917l372-44-52-437c-15-129 78-247 208-262l238-28c130-16 248 77 264 206l25 219c12-90 27-181 44-270l1-4c30-158 68-316 132-464 38-87 85-170 132-254l243-432c94-168 189-337 296-497 115-172 244-334 386-485 79-84 165-167 271-213 38-16 78-27 119-32 117-90 239-174 377-226 11-5 22-9 33-12 59-20 119-35 180-46-62-23-111-82-146-141-45-74-82-159-155-206-65-42-154-51-200-114-83-114 54-280 3-411-47-121-212-134-317-210-84-61-128-166-139-269-16-154 49-286 53-434 4-166 27-348 148-462 62-58 146-94 215-144 9-7 18-14 26-21-17 0-34 1-52 5-72 19-127 85-202 98-92 15-177-57-270-69-96-12-189 43-259 110-69 68-124 150-198 214-46 40-102 73-163 74s-126-40-134-101c-13-94 100-154 136-242 57-137-88-279-83-428 8-220 318-310 377-522 14-52 11-108 26-160 38-127 193-204 317-157 99 37 180 142 286 129 23-3 47-11 69-2 14 7 24 21 33 35 55 93 92 222 198 244 50 10 104-9 152 8 88 31 97 151 82 243-8 55-24 125-8 181 50-16 103-23 154-22 56 2 113 15 169 11 85-4 165-44 250-50 148-11 281 80 399 170 35-6 67-6 95 4 79 26 147 83 230 99 47 8 98 3 144 17 84 24 138 106 169 187 31 82 48 170 93 244 60 98 166 168 202 277 62 186-108 371-116 567-5 129 61 260 25 384-27 91-103 154-140 239-30 70-15 137-35 205-19 68-27 94-92 134-43 26-208 17-226 42 58-80 121-218 131-317 8-80-26-158-45-238l-34 111c-20 68-41 136-79 195-24 36-57 74-96 95-24 12-81 7-95 23-20 22-8 137-10 169-5 58-10 117-20 175l-2 13c182 24 357 70 500 145 223 9 448 119 595 342 174 267 225 594 272 909 61 410 112 821 166 1232l35-4-51-437c-16-129 77-246 207-262l238-28c131-15 248 77 264 206l51 437 435-51c456-54 869 269 923 722l20 175c41 7 68 71 100 80 99 28 177 5 264 59 9 6 17 14 24 23 21 23 39 50 55 77 27 46 55 91 51 146-4 34-17 55-37 85-79 122-155 270-314 295-16 2-34 4-52 5l440 3714c53 452-273 863-729 917l-2402 284c-36 293-72 586-106 879-96 811-302 1610-487 2406-65 281-131 562-204 841-22 88-35 231-88 305-68 95-197 114-322 107-11 50-23 100-36 150l5 3c14 8 28 18 37 33 10 14 12 30 12 47 0 175 118 361 208 527l4246-37c60-114 326-114 464-128 37-4 68-7 100-24 31-17 49-51 75-74 44-41 84-71 151-59 8 1 17 4 25 7-28-791 24-1607 66-2409l-580 12c-45-1631 21-3264 196-4885 24-222 33-495 49-777-154-22-170-129-169-379 1-347 2-695 3-1042 1-374 3-750 21-1124-136-166-251-345-337-541-126-289-175-620-121-932 55-312 252-535 371-816 262-626 707-1196 1272-1576 227-153 472-155 671-62 17-26 18-63 13-95-5-37-17-75-10-113l20-1c-71-169-198-310-304-459-32 14-75-14-100-42-143-157-255-340-328-538-28 48-71 89-120 117 30-75 11-156-8-232-25-106-48-219-55-331-133 101-285 178-445 227-106 33-217 53-328 59-51 3-118 12-168-1-66-18-63-48 7-70 221-71 290-381 273-586-13-163-69-332-7-483 9-22 21-42 34-61-464-30-832-419-833-897l-8-2951c-1-497 396-902 887-903l6804-18h2 26c491-2 890 401 892 898l6 2615 1 308v1 1 1 25c2 498-396 902-887 904h-26l-1467 4h-61c-1 21-2 41-4 59-10 79-62 148-55 230 13 127 98 240 112 378l3 28 82-6c55 590 68 1184 37 1777-2 43-5 88-24 127-21 45-60 77-99 108-211 171-415 343-632 496-115 82-235 158-362 226-281 150-643 386-985 452 54 137 101 277 136 420 51 208 95 423 136 640 232-118 474-224 725-316 872-319 1768-438 2639-382-113-144-220-292-317-446l81-49c-52-107-79-222-149-311-59-76-159-93-230-152-71-58-148-152-192-232-87-158-9-327 45-481 14-38 23-64 51-90 45-42 105-48 164-56 35-4 71-6 106-4 13 1 26 2 37 6 108 40 140 125 233 193 41 30 164-17 158 90-3 39-22 135-27 219-8 122 55 282 129 399 37 59 76 117 117 173h4c41 2 75 32 105 61 256 250 511 500 767 750 40 39 84 80 139 91 41 8 83-2 123-14 702-202 1327-718 1958-1072 79-44 160-89 241-131 218-165 511-274 797-288 1-3 1-6 2-9 7-77-5-65-59-131-80-97-134-208-174-327-8-23-16-48-23-74-108-173-195-358-260-552-17-50-32-102-43-154-87 25-177 20-281-48-229-150-250-474-353-704-151-340-483-821-79-1151-61 50 192 289 230 311 132 75 225 58 353 8 62-25 121-49 179-71 170-68 331-124 537-142 482-40 1019 92 1151 622 5 19 9 38 11 56 210-247 638 65 718 460 114 565-189 1189-705 1449-64 32-141 55-212 56-108 154-222 275-322 339-26 16-53 32-82 46-7 44-10 94-14 147l6 3c25 16 50 33 73 52 80 61 150 136 219 210 62 66 124 132 186 198 33 34 62 71 90 110 28-1 50 17 73 49 28 38 57 95 100 160 228 342 330 865 411 1262 65 322 103 649 115 978 171 1200 178 2493-32 3564-60 5-120 10-181 13 152 892 111 1788-99 2635 78 261 169 518 267 770 399 1025 913 2020 1099 3103l-57 24 123 290c81-24 145-28 159 10 7 17 5 37 2 56-32 267-90 532-173 789l1434-13-6-9 142-210v-19l-89-5v-2469l-959-4709 53-213c-35-750 95-2863 95-3098-1-1029-213-2171 310-3104 152-272 420-707 716-841 251-114 601-142 888-199-1-44-4-88-9-130-198-16-379-84-484-298-62-126-82-274-72-416 2-40 7-80 26-114 4-7 8-14 14-20l-10-138c-158-241-246-605-208-885 40-303 208-536 471-692 308-182 619-156 959-128 36 3 483 26 483 59 0 40 1 80 1 119 49 9 100 7 149-3l-342-1498-432 90c-130 28-259-54-289-183-29-128 53-255 183-282l4698-987c130-28 259 54 289 183 29 128-53 255-183 282l-423 89 558 2444c159 695-204 1381-833 1663-40 18-82 34-124 49 746-63 1447 431 1616 1171l556 2435 423-89c130-27 259 55 289 183 29 129-53 255-183 283l-3383 711c267 49 531 109 792 180 18 5 36 10 53 18 20-3 40-5 61-8 142-21 310-78 401-166 62-61 124-140 154-168 79-76 125 52 176 64 115 27 204-4 308 54 11 6 20 16 30 25 25 26 47 56 67 86 33 52 69 103 67 167-2 39-17 64-38 100-85 146-165 321-348 358-92 19-218 21-311 5-94-17-175-85-274-80-78 3-154 29-231 56v16c0 106-7 228-90 294-48 38-112 48-173 56-588 77-1188 56-1769-63-7 94-13 188-18 281-42 756-43 1528-98 2276-3 40-9 85-40 110-9 8-20 13-31 16l150 512-118 3371-353 3069-271-11c-2 22-3 45-4 69l302 263 329-3h4c251 0 438 224 385 461l-53 232c-39 171-193 294-375 298l-17164 451h-10zm16030-18442c65 82 86 191 96 295 12 125 12 251 0 376-5 53-116 199-149 242l-1 147c47-13 62 95 65 136 5 91 0 183-18 271-34 172-117 337-257 433-95 66-206 95-320 109 0 11-1 22-1 34 82-8 196 30 268 47 457 112 676 86 979 381 72 53 137 118 195 197 16 23 31 46 46 69 89-463 400-863 844-1062 41-18 82-35 125-49-746 62-1447-431-1616-1172l-144-628c-19 48-39 94-43 102-29 47-47 67-69 72zm84-300-17-71c-5 24-10 47-17 70l34 1zm-1927 17118c-3 21-6 41-9 62l105 145 1761-15-25-22 101-262 31-4c-5-23-10-46-13-70l-128-5-70-2999-565-3245-458 3986-635 2434-95-5zm-21979-4713-645 76c-110 323-210 650-287 986-255 1104-666 2181-877 3287-83 3-167 2-250-3-17 86-32 172-38 243 37 2 70 13 87 56 35 85-32 276-48 364-8 40-16 81-26 120l2080-18c-10-36-15-75-14-119 3-128 19-260-4-386-12-61-27-139 25-173 15-9 35-10 56-8 7-43 12-90 17-136-81-20-161-44-240-71 128-1119 56-2270 141-3400 20-273 26-546 23-818zm9541 4225c1 190-1 379-7 566 8-3 16-6 24-7 68-12 107 18 152 59 26 23 44 57 75 74s62 20 100 24c115 12 321 14 420 81l5017-43 109-71-3-236h-149c-44-178-90-357-138-534-214 106-437 203-667 287-1672 612-3434 490-4933-200zm8041-2206c-389 566-870 1072-1431 1495-20 388-62 774-147 1154h-62l4 305 3454-30c5-18 6-37 7-56 11-213-25-418 108-565 10-12 22-23 34-34l-43 19-134-315-137 58c-514-706-1066-1384-1653-2031zm-8507 1969c-844-474-1585-1138-2152-1958-23 110-46 221-69 331l-409 8c-103 388-181 782-234 1180-10 77-115 1024-161 1357 14 0 29 2 43 7 81 28 113 81 119 144l2815-24c12-53 45-96 116-120 14-5 28-7 43-7-27-195-74-600-111-918zm3407-16353zm-2264 6-644 1-1474 4c59 160 86 347 56 502 3-13-12-39-33-68 183 360 227 839 95 1127-85 184-222 337-334 505-67 100-107 194-135 296l9-1c11-1 21-1 30 3 33 15 18 69 40 97 41-78 134-113 220-139 460-139 941-213 1422-218 280-2 501-11 764-131 85-39 175-82 225-162 44-72 47-160 49-245 5-280 11-560 17-841l48-3c-8-77-20-153-35-229-23-116-78-253-155-324-53-48-121-97-145-120-21-20-25-38-20-54zm-10465 3106 15-3c55-8 116-15 181-20-1-20-1-41-1-62-3-98 1-213-70-291-56-61-143-71-210-120-17-12-33-27-47-44 3 70 59 151 83 201 53 115 52 215 49 339z"/>
   <path class="fil1" d="m15329 26101c-11 0 1-1-34-2l-10758-441c-280-11-493-142-628-325-80-110-130-237-148-368-18-132-5-269 44-395 80-210 248-390 513-475 41-13 82-22 121-29 28-4 56-7 86-9 6-74 20-182 50-274-49-59-88-128-115-208-49-148-33-289-20-411 3-28 6-54 6-58 8-163 17-306 26-439 11-173 21-308 30-436 12-156 19-260 26-366 41-586 83-1174 172-1764-319 21-622-80-858-265-253-198-430-492-471-834l-551-4659c-40-342 63-669 263-920 189-239 466-409 788-460l-2-18c-21-180 34-353 139-486 105-132 260-224 440-245l238-28c35-4 70-6 105-4 7-19 15-38 23-57 25-57 50-108 76-157 32-61 53-98 74-135l243-432c35-64 72-128 148-259 54-91 109-181 167-267 66-99 134-192 202-279 71-88 146-175 226-260 51-55 105-109 164-158 71-59 152-112 246-153 38-16 75-30 111-40l9-6c-29-26-57-57-85-96-126-174-126-317-99-455-40-19-80-42-121-71-96-70-169-160-221-261-50-97-79-203-90-308-14-133 2-234 22-331-10 5-20 11-30 15-79 40-169 65-269 66-124 2-251-40-349-114-108-81-188-202-208-352-28-201 34-315 114-415-37-92-70-190-65-327 11-298 169-438 330-581 34-30 55-14 62-37 3-11-2-1-1-13 6-46 11-92 29-155 2-7 5-14 7-21 4-13 7-22 8-26 5-13 11-26 17-39 65-141 179-252 312-318 144-71 318-93 481-45 7 2 14 5 21 7 13 4 22 7 26 8 10 4 21 9 31 13 59 26 102 53 143 81 55-2 118 6 202 44 69 30 121 73 163 120 28 32 46 59 61 83 9 17 18 31 25 44 31 5 65 13 104 27 178 63 282 191 334 345 2 6 4 11 5 16 42-10 87-18 137-22 157-11 297 27 426 90 53 27 101 55 145 84 29 5 58 12 86 21l2 1v-1c65 22 111 47 158 72 15 8-5 9 13 13 7 1 0-1 7-1 54 3 107 6 180 27 120 36 216 103 292 186 67 75 117 166 151 255h1c22 58 30 83 38 109 11 34 22 69 22 69 3 5 21 25 40 46 77 85 155 171 203 317 83 253 13 431-58 612-19 47-38 95-38 103 0 7 6 37 11 68 24 125 47 249-3 418v1c-35 119-86 191-138 262-3 4-6 8-8 11-3 50-8 100-27 168-11 40-21 72-36 107 37 17 73 35 109 55 155 90 293 216 400 380 115 175 188 365 239 562 48 182 74 351 99 517 7 49 14 100 22 155l105-13c179-21 351 33 484 137 134 105 227 260 249 440l2 16 15-1c342-41 669 61 921 258 105 83 198 182 272 295-7-42-14-83-20-125-25-199-23-399 11-593 46-266 156-461 268-657 45-80 91-161 129-250 147-352 348-690 594-994 238-295 518-557 833-769 74-50 151-90 228-120l-16-16c-82-90-156-188-221-292-116-24-221-96-283-207-23-42-39-86-47-130-66 19-126 33-180 43-66 12-139 20-217 25-22 1-2 0-24 2-78 6-167 13-276-17-91-24-168-68-226-125-91-87-135-195-134-319 1-116 43-219 126-304 46-48 105-87 177-116 22-50 29-115 25-167-3-30-8-67-14-103-8-55-16-110-21-166-159-73-301-176-418-302-219-236-353-553-354-903l-8-2951c-1-364 144-694 380-934 236-241 565-390 929-391l3374-9c13-1 26-2 39-2 12 0 24 1 36 2l3355-9v-2h2v2h26v-2 2c363-1 691 147 929 386 236 239 383 569 384 934h2-2l7 2615 1 308h2v1 1 1h-2v25c1 364-144 694-380 934-236 241-564 390-929 391h-26v2-2l-1063 3c53 65 88 147 94 237 1 7 1 14 1 21 28 295 44 592 51 890 5 244 3 486-6 725 23-40 55-80 105-126 142-132 265-148 388-164l10-1c30-4 60-7 89-8 35-2 68-1 97 0 14 1 29 2 51 6 35 4 70 12 106 25 141 53 214 119 280 189 214 22 410 94 386 514-2 42-7 74-12 112-6 37-13 83-15 112 0 1 4 12 9 29 13 40 34 82 56 117 6 10 18 28 36 55 6 3 12 7 18 11 47 31 80 62 109 91l384 375 328 320c387-131 776-381 1158-627 207-133 411-264 617-379 31-18 66-38 122-69 15-8 43-23 94-49 122-89 262-165 411-224-5-13-10-27-14-40l-13-37c-48-82-94-170-138-263-34-71-64-143-92-215-65-21-130-52-195-95-289-189-370-456-448-714-20-63-39-126-59-172-15-34-41-86-67-140-224-454-497-1010 98-1503 3-3 5-5 8-7l282 346 35 20-14 6 54 66 36-29-76-43 299-150c9-27 19-37 30-15l1 1h1c-1-2-1-6 2-2 18 23 33 42 42 54l4-2c67-26 83-33 101-40 104-41-47 17 76-31 93-37 186-71 297-103 113-31 231-55 361-66 337-28 702 14 1004 177 181 97 336 233 448 415 64 7 127 21 189 44 102 37 202 97 294 175l1 1v-1c184 157 338 398 392 665 76 376 15 768-149 1106-165 338-436 629-779 802v1c-51 25-107 48-165 65-26 32-52 62-78 90 10 11 19 21 29 31l186 199c16 17 33 36 50 57 5 3 10 7 15 10 53 38 95 83 133 135 20 28 40 62 63 101 10 16 21 34 45 70 267 402 379 951 466 1380l7 34c37 181 65 355 84 521 19 158 32 323 38 496 89 626 134 1281 128 1922-5 621-58 1223-164 1767-18 92-64 170-128 229 40 347 53 694 40 1039-17 437-74 867-170 1285 29 93 58 181 87 264 43 125 89 248 136 368 104 270 213 527 322 785 327 777 654 1554 800 2399v2c92 49 162 130 205 250 22 61 29 117 29 170 0 43-2 62-4 78-12 106-28 210-48 313l513-4v-2259l-949-4660c-13-63-11-126 3-185l39-156c-19-580 37-1757 72-2483 15-300 25-523 25-571 0-209-10-443-21-678-40-888-82-1802 384-2633 82-147 197-340 339-523 160-208 352-397 572-497 59-26 120-49 182-69-44-93-73-192-91-294-19-106-23-214-16-321 2-32 6-68 15-115 2-10 4-20 7-30-70-133-124-283-160-435-47-200-62-413-37-605 29-218 104-411 219-579 115-170 270-311 456-422 422-250 795-220 1202-186h5 1c33 3 20 2 24 2 2 0 4 1 6 1l-93-406-26 6c-177 37-353 0-495-90s-251-235-291-413l-1-5h-1l-1-4c-3-13-5-27-7-40-24-163 14-323 99-454 90-139 233-244 408-284h2v-2l4-1c11-2 22-4 33-5l4670-982c176-37 351 0 493 90 143 91 253 235 293 413l2 5v-1l1 4c3 14 5 28 7 41 24 163-14 323-99 454-90 139-233 244-408 284h-2v2h-4l-6 2 462 2023c101 443 37 884-151 1261-59 116-129 226-209 328 94 48 183 102 268 164 367 265 642 658 750 1131l464 2030 18-3c177-37 353-1 495 89s251 236 291 415l1 3h1l1 5c3 13 5 27 7 41 24 161-14 320-98 450l1 1c-90 139-233 245-408 285l-5 1v1l-5 1c-8 2-17 3-25 5l-1011 212c55 89 100 188 94 348v3c-6 144-41 204-93 293v1 1c-5 9-10 17-16 25-2 4-6 10-10 18-122 215-253 443-603 515-71 15-154 23-236 24-83 2-165-4-233-16-31-5-59-12-85-20-38 81-94 156-176 221-75 59-152 93-229 115-52 15-102 22-150 29-317 41-637 56-956 45-159-6-317-18-474-37-13 267-21 522-29 776-14 452-29 904-59 1320-4 42-9 88-26 149-2 7-4 13-6 20l94 323c13 46 18 92 16 137l-117 3364c-1 12-2 24-3 35h1l-336 2920c35 3 71 9 107 17 182 42 339 142 450 278 115 140 183 315 183 503 0 54-7 112-21 174l-53 233c-41 182-143 338-282 449-135 108-307 173-494 178l-17164 450h-13-2-5v2zm-10192-2460c-121-31-238-87-275-198-29-87 2-228 6-318 14-288 35-576 56-864 60-814 101-1639 251-2442 12-68 25-135 38-203l-499 59c-456 54-869-270-923-722l-551-4659c-53-453 273-863 729-917l372-44-52-437c-15-129 78-247 208-262l238-28c130-16 248 77 264 206l25 219c12-90 27-181 44-270l1-4c30-158 68-316 132-464 38-87 85-170 132-254l243-432c94-168 189-337 296-497 115-172 244-334 386-485 79-84 165-167 271-213 38-16 78-27 119-32 117-90 239-174 377-226 11-5 22-9 33-12 59-20 119-35 180-46-62-23-111-82-146-141-45-74-82-159-155-206-65-42-154-51-200-114-83-114 54-280 3-411-47-121-212-134-317-210-84-61-128-166-139-269-16-154 49-286 53-434 4-166 27-348 148-462 62-58 146-94 215-144 9-7 18-14 26-21-17 0-34 1-52 5-72 19-127 85-202 98-92 15-177-57-270-69-96-12-189 43-259 110-69 68-124 150-198 214-46 40-102 73-163 74s-126-40-134-101c-13-94 100-154 136-242 57-137-88-279-83-428 8-220 318-310 377-522 14-52 11-108 26-160 38-127 193-204 317-157 99 37 180 142 286 129 23-3 47-11 69-2 14 7 24 21 33 35 55 93 92 222 198 244 50 10 104-9 152 8 88 31 97 151 82 243-8 55-24 125-8 181 50-16 103-23 154-22 56 2 113 15 169 11 85-4 165-44 250-50 148-11 281 80 399 170 35-6 67-6 95 4 79 26 147 83 230 99 47 8 98 3 144 17 84 24 138 106 169 187 31 82 48 170 93 244 60 98 166 168 202 277 62 186-108 371-116 567-5 129 61 260 25 384-27 91-103 154-140 239-30 70-15 137-35 205-19 68-27 94-92 134-43 26-208 17-226 42 58-80 121-218 131-317 8-80-26-158-45-238l-34 111c-20 68-41 136-79 195-24 36-57 74-96 95-24 12-81 7-95 23-20 22-8 137-10 169-5 58-10 117-20 175l-2 13c182 24 357 70 500 145 223 9 448 119 595 342 174 267 225 594 272 909 61 410 112 821 166 1232l35-4-51-437c-16-129 77-246 207-262l238-28c131-15 248 77 264 206l51 437 435-51c456-54 869 269 923 722l20 175c41 7 68 71 100 80 99 28 177 5 264 59 9 6 17 14 24 23 21 23 39 50 55 77 27 46 55 91 51 146-4 34-17 55-37 85-79 122-155 270-314 295-16 2-34 4-52 5l440 3714c53 452-273 863-729 917l-2402 284c-36 293-72 586-106 879-96 811-302 1610-487 2406-65 281-131 562-204 841-22 88-35 231-88 305-68 95-197 114-322 107-11 50-23 100-36 150l5 3c14 8 28 18 37 33 10 14 12 30 12 47 0 175 118 361 208 527l4246-37c60-114 326-114 464-128 37-4 68-7 100-24 31-17 49-51 75-74 44-41 84-71 151-59 8 1 17 4 25 7-28-791 24-1607 66-2409l-580 12c-45-1631 21-3264 196-4885 24-222 33-495 49-777-154-22-170-129-169-379 1-347 2-695 3-1042 1-374 3-750 21-1124-136-166-251-345-337-541-126-289-175-620-121-932 55-312 252-535 371-816 262-626 707-1196 1272-1576 227-153 472-155 671-62 17-26 18-63 13-95-5-37-17-75-10-113l20-1c-71-169-198-310-304-459-32 14-75-14-100-42-143-157-255-340-328-538-28 48-71 89-120 117 30-75 11-156-8-232-25-106-48-219-55-331-133 101-285 178-445 227-106 33-217 53-328 59-51 3-118 12-168-1-66-18-63-48 7-70 221-71 290-381 273-586-13-163-69-332-7-483 9-22 21-42 34-61-464-30-832-419-833-897l-8-2951c-1-497 396-902 887-903l6804-18h2 26c491-2 890 401 892 898l6 2615 1 308v1 1 1 25c2 498-396 902-887 904h-26l-1467 4h-61c-1 21-2 41-4 59-10 79-62 148-55 230 13 127 98 240 112 378l3 28 82-6c55 590 68 1184 37 1777-2 43-5 88-24 127-21 45-60 77-99 108-211 171-415 343-632 496-115 82-235 158-362 226-281 150-643 386-985 452 54 137 101 277 136 420 51 208 95 423 136 640 232-118 474-224 725-316 872-319 1768-438 2639-382-113-144-220-292-317-446l81-49c-52-107-79-222-149-311-59-76-159-93-230-152-71-58-148-152-192-232-87-158-9-327 45-481 14-38 23-64 51-90 45-42 105-48 164-56 35-4 71-6 106-4 13 1 26 2 37 6 108 40 140 125 233 193 41 30 164-17 158 90-3 39-22 135-27 219-8 122 55 282 129 399 37 59 76 117 117 173h4c41 2 75 32 105 61 256 250 511 500 767 750 40 39 84 80 139 91 41 8 83-2 123-14 702-202 1327-718 1958-1072 79-44 160-89 241-131 218-165 511-274 797-288 1-3 1-6 2-9 7-77-5-65-59-131-80-97-134-208-174-327-8-23-16-48-23-74-108-173-195-358-260-552-17-50-32-102-43-154-87 25-177 20-281-48-229-150-250-474-353-704-151-340-483-821-79-1151-61 50 192 289 230 311 132 75 225 58 353 8 62-25 121-49 179-71 170-68 331-124 537-142 482-40 1019 92 1151 622 5 19 9 38 11 56 210-247 638 65 718 460 114 565-189 1189-705 1449-64 32-141 55-212 56-108 154-222 275-322 339-26 16-53 32-82 46-7 44-10 94-14 147l6 3c25 16 50 33 73 52 80 61 150 136 219 210 62 66 124 132 186 198 33 34 62 71 90 110 28-1 50 17 73 49 28 38 57 95 100 160 228 342 330 865 411 1262 65 322 103 649 115 978 171 1200 178 2493-32 3564-60 5-120 10-181 13 152 892 111 1788-99 2635 78 261 169 518 267 770 399 1025 913 2020 1099 3103l-57 24 123 290c81-24 145-28 159 10 7 17 5 37 2 56-32 267-90 532-173 789l1434-13-6-9 142-210v-19l-89-5v-2469l-959-4709 53-213c-35-750 95-2863 95-3098-1-1029-213-2171 310-3104 152-272 420-707 716-841 251-114 601-142 888-199-1-44-4-88-9-130-198-16-379-84-484-298-62-126-82-274-72-416 2-40 7-80 26-114 4-7 8-14 14-20l-10-138c-158-241-246-605-208-885 40-303 208-536 471-692 308-182 619-156 959-128 36 3 483 26 483 59 0 40 1 80 1 119 49 9 100 7 149-3l-342-1498-432 90c-130 28-259-54-289-183-29-128 53-255 183-282l4698-987c130-28 259 54 289 183 29 128-53 255-183 282l-423 89 558 2444c159 695-204 1381-833 1663-40 18-82 34-124 49 746-63 1447 431 1616 1171l556 2435 423-89c130-27 259 55 289 183 29 129-53 255-183 283l-3383 711c267 49 531 109 792 180 18 5 36 10 53 18 20-3 40-5 61-8 142-21 310-78 401-166 62-61 124-140 154-168 79-76 125 52 176 64 115 27 204-4 308 54 11 6 20 16 30 25 25 26 47 56 67 86 33 52 69 103 67 167-2 39-17 64-38 100-85 146-165 321-348 358-92 19-218 21-311 5-94-17-175-85-274-80-78 3-154 29-231 56v16c0 106-7 228-90 294-48 38-112 48-173 56-588 77-1188 56-1769-63-7 94-13 188-18 281-42 756-43 1528-98 2276-3 40-9 85-40 110-9 8-20 13-31 16l150 512-118 3371-353 3069-271-11c-2 22-3 45-4 69l302 263 329-3h4c251 0 438 224 385 461l-53 232c-39 171-193 294-375 298l-17164 451h-10c-6 0-11 0-17-1l-10759-440c-437-18-523-607-107-740 39-12 79-19 120-19l221-2 79-99c29-37 58-74 70-119 11-41 6-84 6-127 1-70 30-369 155-325 9 4 19 9 29 14 3-60 6-119 11-179zm26222-16405c65 82 86 191 96 295 12 125 12 251 0 376-5 53-116 199-149 242l-1 147c47-13 62 95 65 136 5 91 0 183-18 271-34 172-117 337-257 433-95 66-206 95-320 109 0 11-1 22-1 34 82-8 196 30 268 47 457 112 676 86 979 381 72 53 137 118 195 197 16 23 31 46 46 69 89-463 400-863 844-1062 41-18 82-35 125-49-746 62-1447-431-1616-1172l-144-628c-19 48-39 94-43 102-29 47-47 67-69 72zm84-300-17-71c-5 24-10 47-17 70l34 1zm-1927 17118c-3 21-6 41-9 62l105 145 1761-15-25-22 101-262 31-4c-5-23-10-46-13-70l-128-5-70-2999-565-3245-458 3986-635 2434-95-5zm-23788-364c-83 3-167 2-250-3-17 86-32 172-38 243 37 2 70 13 87 56 35 85-32 276-48 364-8 40-16 81-26 120l2080-18c-10-36-15-75-14-119 3-128 19-260-4-386-12-61-27-139 25-173 15-9 35-10 56-8 7-43 12-90 17-136-81-20-161-44-240-71 128-1119 56-2270 141-3400 20-273 26-546 23-818l-645 76c-110 323-210 650-287 986-255 1104-666 2181-877 3287zm11350-124c1 190-1 379-7 566 8-3 16-6 24-7 68-12 107 18 152 59 26 23 44 57 75 74s62 20 100 24c115 12 321 14 420 81l5017-43 109-71-3-236h-149c-44-178-90-357-138-534-214 106-437 203-667 287-1672 612-3434 490-4933-200zm8041-2206c-389 566-870 1072-1431 1495-20 388-62 774-147 1154h-62l4 305 3454-30c5-18 6-37 7-56 11-213-25-418 108-565 10-12 22-23 34-34l-43 19-134-315-137 58c-514-706-1066-1384-1653-2031zm-8507 1969c-844-474-1585-1138-2152-1958-23 110-46 221-69 331l-409 8c-103 388-181 782-234 1180-10 77-115 1024-161 1357 14 0 29 2 43 7 81 28 113 81 119 144l2815-24c12-53 45-96 116-120 14-5 28-7 43-7-27-195-74-600-111-918zm3407-16353zm-4326 513c3-13-12-39-33-68 183 360 227 839 95 1127-85 184-222 337-334 505-67 100-107 194-135 296l9-1c11-1 21-1 30 3 33 15 18 69 40 97 41-78 134-113 220-139 460-139 941-213 1422-218 280-2 501-11 764-131 85-39 175-82 225-162 44-72 47-160 49-245 5-280 11-560 17-841l48-3c-8-77-20-153-35-229-23-116-78-253-155-324-53-48-121-97-145-120-21-20-25-38-20-54l-644 1-1474 4c59 160 86 347 56 502zm-8403 2599 15-3c55-8 116-15 181-20-1-20-1-41-1-62-3-98 1-213-70-291-56-61-143-71-210-120-17-12-33-27-47-44 3 70 59 151 83 201 53 115 52 215 49 339zm-2088-2494c3-6 2-5 0 0zm-11 26c1-1 2-3 3-7l8-19-11 26zm2263-364c-3 22-1 9 0 0v0zm4929 7172c-23 25-48 49-75 71l73 618 1-465c0-75 1-150 1-224zm135 1854 13 106 4-85c-5-7-11-14-17-21zm-184 2661c-191 184-441 308-723 342l-2072 245-14 108c-17 146-35 293-52 439-84 712-248 1404-411 2093-40 171-80 341-84 358-19 81-43 184-101 425-38 156-73 302-106 428-1 2-6 28-11 57-24 120-50 259-142 387-56 78-123 137-198 181 3 5 6 11 8 17l3834-33c163-96 362-112 521-123l27-24c-7-563 19-1128 49-1689l-127 2c-231 4-422-179-428-410-23-826-18-1651 15-2473 4-110 9-220 15-330zm6592-9043c-8 10-17 19-26 28-35 35-64 59-92 82-88 71-105 85-124 101-176 143-349 285-530 412-64 45-129 89-196 131-10 6-21 12-31 17-61 38-121 72-180 104-11 6-89 50-171 96-148 83-309 174-479 250 4 18 9 36 13 55 12 45 22 90 32 133 91-37 183-73 276-107 458-168 922-284 1385-351 220-31 439-52 658-63-1-35 2-70 9-104-49-25-99-53-155-99-53-43-109-102-162-165-51-63-97-129-131-190-65-118-92-227-96-330zm549 762v-1 1zm3810-3920 21 26m54 66 149 183 64-112-177-100 218-177c2-6 3-11 5-16m-110 405 24 30c12-18 50-64 76-92-6-4-11-17-13-37l-23-13 19-34c-2-76 7-184 22-243m-18 290c-2-13-3-29-4-47m58-273c1 2 1 1 1 0h-1zm8121 2168-3 18c-17 86-43 170-77 251 146 40 278 94 421 197 34-53 70-104 109-153-93-47-183-102-268-163-63-47-124-97-182-150zm-1666 15069 811-7-68-2896-58-335-124 1076c-4 30-10 58-19 85l-542 2077zm-23020-3611c-24 90-47 181-68 273-115 497-260 985-404 1472-178 601-356 1201-470 1799-22 117-91 214-183 275v1l1141-10c0-2 0-5-1-7l-1-2c-1-5-2-11-2-16-9-48-18-99-21-151-91-90-137-218-122-347h-1c71-616 79-1236 88-1857 6-484 13-968 44-1430zm18062 1804c-120 148-247 292-380 431-209 218-432 423-669 613-10 142-23 281-39 414-16 130-37 264-63 402l2536-22c4-39 9-78 17-116-54-34-101-80-136-137-243-332-499-663-768-993-161-198-327-396-498-592zm-8931 1559c-382-231-744-500-1078-803-228-208-443-432-644-672-38 9-77 14-117 12l-62 2c-19 82-37 166-54 251-39 199-71 388-94 567-4 25-11 96-30 263-24 213-59 513-90 767l2213-19-9-71c-9-79-22-184-35-297zm1340-16183-445 1-984 3c-1 8-1 17-2 26 66 177 107 365 122 546 23 267-12 531-109 744-3 8-7 16-11 23 33-5 65-11 98-16 251-38 511-59 779-61 120-1 228-4 332-19 87-12 171-35 260-75 9-4 18-8 26-12l1-19 17-841c1-44 9-87 22-127l-2-14c-6-31-17-64-30-92-2-5 2-3 5-2h1l-2-2c-4-4-8-7-12-11-14-11-38-30-59-47l-7-5zm79 65c1 1 2 1 1 0h-1z"/>
   <path class="fil2" d="m15329 25678c-6 0-11 0-17-1l-10759-440c-437-18-523-607-107-740 39-12 79-19 120-19l27976-242h4c251 0 438 224 385 461l-53 232c-39 171-193 294-375 298l-17164 451h-10z"/>
   <path class="fil3" d="m12147 13626c-7-9-15-17-24-23-87-54-165-31-264-59-43-12-77-125-149-62-27 23-84 89-140 138-81 73-229 115-352 127-484 48-968-38-1443-137-28-6-56-12-77-30-39-31-44-87-46-137-14-229-48-458-104-681-49-199-118-399-248-558-131-158-334-269-538-244-152 19-293 116-364 252-178 338 176 768 333 1055 148 271 315 532 499 781 23 30 47 61 80 81 35 20 77 25 117 29 521 54 1044 62 1570 59 145-1 270-77 404-77 85 1 152 62 232 80s189 21 269 9c159-25 235-173 314-295 20-30 33-51 37-85 4-55-24-100-51-146-16-27-34-54-55-77z"/>
   <path class="fil4" d="m8535 13339c154 154 322 290 442 483 84 134 154 286 286 372 102 68 229 86 351 99 96 10 193 18 290 25l147-681c-92-36-190-56-289-56-112-701-186-1405-291-2107-47-315-98-642-272-909-373-570-1254-402-1333 299-61 546 20 1110 203 1627 80 226 177 508 328 696 43 54 90 104 138 152z"/>
   <path class="fil5" d="m5439 24038c-110 7-211-32-318-44 5-377 46-739 127-1112 167 185 306 78 301 424-2 112-132 561-110 732z"/>
   <path class="fil6" d="m5097 23806c-125-44-154 255-155 325 0 43 5 86-6 127-12 45-41 82-70 119-61 76-122 152-182 229-28 34-55 69-70 110-36 103 24 224 121 273 336 170 643-241 716-513 11-42 19-84 28-126 16-88 83-279 48-364-41-100-164-28-244-65-75-35-135-96-186-115z"/>
   <path class="fil6" d="m7487 17820c-314 854-676 1689-882 2583-255 1104-666 2181-877 3287-136 5-273-1-408-17-156-18-402-60-458-230-29-87 2-228 6-318 14-288 35-576 56-864 60-814 101-1639 251-2442 157-844 308-1692 447-2537 72-436 160-870 268-1299 28-110 320-1249 377-1240 679 108 1314 333 1905 683 57 34 113 75 133 136 20 60 2 113-17 168-177 525-412 1017-601 1540-65 182-132 364-200 550z"/>
   <path class="fil5" d="m7546 23976c103 40 211 33 316 53 108-361 176-719 209-1099-213 127-315-17-412 315-32 108-42 575-113 731z"/>
   <path class="fil6" d="m7970 23920c0 205 162 425 251 609 10 22 21 44 21 68 1 36-21 68-42 97-29 40-60 82-107 100-45 18-96 9-144-1-79-18-158-39-236-63-19-7-39-13-55-26-18-15-30-37-40-59-55-111-102-189-99-312 3-128 19-260-4-386-12-61-27-139 25-173 41-26 115 10 159 17 78 13 150 8 222 49 14 8 28 18 37 33 10 14 12 30 12 47z"/>
   <path class="fil6" d="m7440 17431c45 909 142 1814 74 2728-85 1130-13 2281-141 3400 129 44 261 80 395 105 154 28 402 62 506-84 53-74 66-217 88-305 73-279 139-560 204-841 185-796 391-1595 487-2406 101-854 209-1708 327-2556 62-438 107-878 130-1320 7-114 67-1288 10-1296-680-99-1353-73-2022 86-65 15-130 38-167 90s-36 107-34 165c12 554 91 1094 115 1649 9 193 18 387 28 585z"/>
   <path class="fil4" d="m7058 10142c-11 3-22 7-33 12-183 69-338 194-490 316-228 185-341 265-429 538-82 255-133 524-184 786-258 1347-308 2689-494 4046-50 369-89 804 184 1057 485-377 1094-399 1682-399 413-1 817-134 1231-88 395 44 741-55 1142-29 97 6 220 5 258-84-139-416-136-864-168-1302-81-1132-456-2219-608-3344-51-382-79-1017-375-1306-321-315-1055-321-1469-260-84 13-167 30-247 57z"/>
   <path class="fil7" d="m8115 11404c-53-37-107-73-161-109 109-108 217-217 325-325 46-45 92-92 117-151 27-64 27-136 26-205-2-95-6-194-43-281-70-161-312-250-478-243-181 8-358 84-519 160-52 25-105 51-146 91-89 88-106 231-73 351 34 121 111 224 192 320s168 189 227 299c-146 84-291 167-437 250-19 11-41 25-46 47-4 21 8 41 20 59 152 239 328 562 329 850 2 351 34 705 48 1056 29 732 38 1465 27 2198-3 168-6 337-11 505 188 12 377 10 565-6 40-4 84-9 114-37 36-33 40-88 41-137 3-123 4-246 3-368-7-723-77-1443-113-2165-30-613-114-1338 289-1855 12-16 25-33 26-53 0-30-28-52-52-69-90-61-180-121-270-182z"/>
   <path class="fil3" d="m7506 10158c7 13 16 26 28 38 48 47 115 74 181 84 87 12 175-2 262-19 117-22 113-90 129-196 10-58 15-117 20-175 2-32-10-147 10-169 14-16 71-11 95-23 39-21 72-59 96-95 38-59 59-127 79-195 36-116 71-233 107-350 36-120 73-240 85-364 17-187-13-452-155-589-128-125-317-168-489-190-229-30-465 12-663 133-79 49-155 113-202 200-73 135-67 303-59 460 7 145 14 290 21 435 9 167 29 359 154 449 67 49 154 59 210 120 71 78 67 193 70 291 2 56-3 109 21 155z"/>
   <path class="fil6" d="m8229 8283c8 14 15 28 20 43 26 77 8 163 34 240 42 123 184 196 206 323 17 104-54 203-60 309-6 115 67 224 56 337-10 99-73 237-131 317 18-25 183-16 226-42 65-40 73-66 92-134 20-68 5-135 35-205 37-85 113-148 140-239 36-124-30-255-25-384 8-196 178-381 116-567-36-109-142-179-202-277-45-74-62-162-93-244-31-81-85-163-169-187-46-14-97-9-144-17-83-16-151-73-230-99-114-39-314 76-381 172-66 96-32 177 35 261 112 141 383 233 475 393z"/>
   <path class="fil6" d="m6700 7705c-69 50-153 86-215 144-121 114-144 296-148 462-4 148-69 280-53 434 11 103 55 208 139 269 105 76 270 89 317 210 51 131-86 297-3 411 46 63 135 72 200 114 73 47 110 132 155 206 44 75 111 149 197 151 4-132 8-236-48-357-33-70-130-200-56-276 47-63 158-83 160-162 2-37-24-68-44-99-79-120-87-279-34-411 54-133 164-239 292-301 151-73 127-110 171-254 40-133 115-164 235-213 107-43 142-70 181-171 29-73 65-161 23-244-33-65-94-111-152-156-122-93-258-190-411-179-85 6-165 46-250 50-56 4-113-9-169-11-97-3-199 26-277 84-79 58-77 119-121 201-21 40-53 71-89 98z"/>
   <path class="fil6" d="m7041 7163c15-92 6-212-82-243-48-17-102 2-152-8-106-22-143-151-198-244-9-14-19-28-33-35-22-9-46-1-69 2-106 13-187-92-286-129-124-47-279 30-317 157-15 52-12 108-26 160-59 212-369 302-377 522-5 149 140 291 83 428-36 88-149 148-136 242 8 61 73 102 134 101s117-34 163-74c74-64 129-146 198-214 70-67 163-122 259-110 93 12 178 84 270 69 75-13 130-79 202-98 69-17 139 10 210 14 70 4 156-32 158-103 0-17-4-34 1-50 15-46 92-43 107-89-37-56-88-36-114-110-21-57-4-130 5-188z"/>
   <path class="fil3" d="m15755 8548c-85 184-222 337-334 505-109 164-148 312-177 501-21 137-70 244-235 268-311 44-222-213-293-400-81-214-253-383-373-574-348-551-249-1640 474-1873 791-254 1193 1016 938 1573z"/>
   <path class="fil6" d="m14495 8015c-90 4-189 11-255 71-67 60-60 192 28 206 80 13 183-70 232-10 28 36 3 88-19 129-82 159-107 344-68 513-33 30-84-1-113-33-143-157-255-340-328-538-28 48-71 89-120 117 30-75 11-156-8-232-67-279-113-605 82-833 104-122 262-192 421-222 160-29 322-22 483-15 68 3 153 18 170 82-151 60-307 178-382 321-24 43-114 444-123 444z"/>
   <path class="fil6" d="m14813 7345c-5 4-11 8-16 12-68 52-132 115-215 138-119 34-247-24-364 17-132 45-218 202-313 295-157 152-352 264-561 327-106 33-217 53-328 59-51 3-118 12-168-1-66-18-63-48 7-70 221-71 290-381 273-586-13-163-69-332-7-483 47-115 149-174 247-240 108-72 225-53 348-88 128-36 233-137 363-163 138-27 276 34 414 61 114 22 233 21 347-4 101-22 201-64 305-63 153 2 295 98 384 222 127 177 209 479 164 711 7-36-114-167-139-195-53-59-116-115-197-124-182-22-398 69-544 175z"/>
   <path class="fil3" d="m35794 13288c-10-9-19-19-30-25-104-58-193-27-308-54-51-12-97-140-176-64-30 28-92 107-154 168-91 88-259 145-401 166-558 81-1123 8-1679-82-31-5-64-11-90-30-46-34-55-98-61-156-28-265-80-527-156-783-68-228-158-456-318-632-160-177-401-294-635-254-176 30-333 151-409 312-187 400 246 879 442 1203 186 306 394 599 621 876 28 35 57 69 96 90 42 22 91 25 138 28 606 34 1212 15 1820-17 167-8 309-104 463-110 99-5 180 63 274 80 93 16 219 14 311-5 183-37 263-212 348-358 21-36 36-61 38-100 2-64-34-115-67-167-20-30-42-60-67-86z"/>
   <path class="fil8" d="m31526 13093c137 206 274 413 393 635 79 147 157 305 295 400 87 59 191 88 294 113 638 155 1304 191 1955 105 61-8 125-18 173-56 83-66 90-188 90-294v-374c0-37-1-77-24-106-22-27-57-38-91-47-402-110-811-193-1224-250-131-18-271-37-372-124-215-186-220-882-269-1169-56-327-101-658-166-984-71-363-148-738-364-1038-462-639-1473-397-1526 417-41 615 74 1240 298 1813 136 351 336 655 538 959z"/>
   <path class="fil3" d="m19759 9396c13 1 26 2 37 6 108 40 140 125 233 193 41 30 164-17 158 90-3 39-22 135-27 219-8 122 55 282 129 399 290 462 697 832 1112 1185 24 21 49 41 79 48 54 13 107-21 153-53 213-146 439-272 675-376 210-93 435-169 665-162s468 111 585 309c88 148 98 340 27 496-178 389-802 371-1164 429-342 55-688 86-1034 93-43 0-87 1-127-15-42-18-75-51-107-84-405-425-771-884-1129-1352-98-128-117-292-209-410-59-76-159-93-230-152-71-58-148-152-192-232-87-158-9-327 45-481 14-38 23-64 51-90 45-42 105-48 164-56 35-4 71-6 106-4z"/>
   <path class="fil9" d="m22581 12461c-299 35-599 42-891 18-104-8-209-21-306-60-150-62-267-183-379-301-404-424-810-852-1122-1347 146-88 291-175 437-262 28-17 58-34 90-33 41 2 75 32 105 61 256 250 511 500 767 750 40 39 84 80 139 91 41 8 83-2 123-14 702-202 1327-718 1958-1072 312-174 637-353 993-381 761-61 1216 835 650 1385-672 652-1615 1053-2564 1165z"/>
   <polygon class="fil3" points="23471 23480 23483 24348 22969 24355 22956 23393"/>
   <path class="fil6" d="m23015 24219 447 147 133 144-22 340-1209 94c-102-149-35-351 135-409l56-19 460-297z"/>
   <polygon class="fil3" points="27176 22649 27516 23447 27043 23648 26666 22763"/>
   <path class="fil6" d="m27052 23663c17-19 37-37 60-53 57-42 515-285 554-175 7 17 5 37 2 56-37 315-111 625-219 923-47 128-117 269-249 301-58 14-118 4-176-9-86-20-170-45-252-77-30-11-62-25-77-53-31-57 23-123 79-153 57-31 126-52 154-110 12-26 14-56 16-85 11-213-25-418 108-565z"/>
   <path class="fil10" d="m23946 19460c169 771 651 1325 1166 1892 589 649 1144 1330 1660 2039 223-93 446-187 669-280-186-1083-700-2078-1099-3103-277-712-501-1465-513-2235-6-383 87-733 136-1105 62-461 65-934 121-1397 19-156 29-340-90-441-53-45-124-63-192-77-2537-491-2179 3240-1858 4707z"/>
   <path class="fil10" d="m26013 15416c1-468-56-919-143-1263-722-39-1538 41-2251 186-698 141-1133 293-1138 1050-10 1392-554 2578-789 3916-136 777 100 1473 361 2193 299 824 554 1664 763 2515 242-1 483-2 725-4 239-1073 140-2188 161-3288 14-764 92-1546 373-2263 308-788 753-474 1263-931 496-444 673-1303 675-2111z"/>
   <path class="fil9" d="m25193 10059c80 61 150 136 219 210 62 66 124 132 186 198 215 229 321 568 413 861 485 1540 659 3653 344 5262-1193 103-2574-198-3765-360-115-16-246-42-307-142-36-61-37-136-37-207 0-1021 216-2119 419-3126 85-425 190-847 325-1259 143-436 304-907 639-1237 358-353 1043-527 1491-252 25 16 50 33 73 52z"/>
   <path class="fil3" d="m25085 10278c31-139 24-302 43-421 29-14 56-30 82-46 498-318 1332-2024 6-2406-1205-347-1142 1310-907 2001 40 119 94 230 174 327 54 66 66 54 59 131-13 116-103 214-119 334-24 185 43 424 85 603 147-97 293-194 440-291 77-51 116-136 137-232z"/>
   <path class="fil6" d="m24026 8780c74 221 177 431 306 625-7-408 43-817 147-1211 8-30 15-65-1-91-15-25-46-34-75-40-507-110-505 333-377 717z"/>
   <path class="fil6" d="m25359 9395c81 114 260 84 385 21 516-260 819-884 705-1449-96-473-693-828-813-242-43 208 84 496 55 727-42 329-195 644-332 943z"/>
   <path class="fil6" d="m24032 6971c-58 22-117 46-179 71-128 50-221 67-353-8-38-22-291-261-230-311-404 330-72 811 79 1151 103 230 124 554 353 704 253 165 426-44 655-137 202-83 421-127 627-201 341-121 849-335 736-789-132-530-669-662-1151-622-206 18-367 74-537 142z"/>
   <path class="fil10" d="m24328 11387c-55 348-55 707-105 1057-27 192-70 382-104 573-98 542-131 1094-164 1643-6 109-13 217-19 326-4 69-33 182 1 248 34 67 119 74 182 99 92 38 178 90 253 155 140-42 234-179 266-322 33-142 15-290-1-435-139-1271-115-2559 73-3824 57 25 125-16 151-72s22-121 16-183c1 11-293-1-315-2-176-9-228 32-228 226 85 41 70 165 46 257-22 84-39 169-52 254z"/>
   <path class="fil3" d="m16742 24361c109 4 214-21 320-31 56-1059-45-2170-88-3234-272 14-544 29-817 43 190 569 325 1156 404 1751 13 94 166 1470 181 1471z"/>
   <path class="fil6" d="m17095 24125c68-12 107 18 152 59 26 23 44 57 75 74s62 20 100 24c196 20 648 12 407 340-219 298-800 180-1136 99-22-6-45-9-61-26s-27-42-34-67c-39-140-91-315 82-374 73-25 141 24 219-3 64-23 129-114 196-126z"/>
   <path class="fil6" d="m17584 21735-1665-33c-449-2137-845-4286-1186-6444-26-167-52-341-4-503 91-308 420-483 735-542 489-91 1388 36 1639 545 265 538 221 1498 285 2092 176 1621 241 3254 196 4885z"/>
   <path class="fil3" d="m13568 24361c-109 4-214-21-321-31-55-1059 45-2170 89-3234 272 14 544 29 816 43-189 569-325 1156-404 1751-12 94-165 1470-180 1471z"/>
   <path class="fil6" d="m13214 24125c-67-12-107 18-151 59-26 23-44 57-75 74-32 17-63 20-100 24-196 20-649 12-408 340 219 298 801 180 1136 99 22-6 46-9 62-26s27-42 34-67c38-140 91-315-82-374-74-25-141 24-219-3-64-23-130-114-197-126z"/>
   <path class="fil6" d="m12725 21735c555-11 1111-22 1666-33 449-2137 844-4286 1186-6444 26-167 52-341 4-503-92-308-420-483-735-542-490-91-1389 36-1640 545-265 538-220 1498-285 2092-175 1621-241 3254-196 4885z"/>
   <path class="fil3" d="m17871 6605c-8 8-15 17-20 26-43 88-13 160-31 257-8 43-112 86-45 148 24 23 92 72 145 120 77 71 132 208 155 324 91 458 55 928 6 1391-3 26-7 54-21 76-27 40-79 50-126 57-218 34-433 89-641 163-185 66-370 151-509 290-138 140-225 344-182 536 33 144 139 269 276 325 339 137 716-242 975-418 245-167 478-351 697-551 27-25 55-50 70-84 16-35 17-76 17-115 2-502-40-1002-93-1503-14-138-99-251-112-378-7-82 45-151 55-230 9-77 2-181-18-257-39-149-187-208-311-272-31-16-51-27-84-26-53 0-94 32-135 62-25 18-48 37-68 59z"/>
   <path class="fil11" d="m17911 10177c217-153 421-325 632-496 39-31 78-63 99-108 19-39 22-84 24-127 31-593 18-1187-37-1777-189 14-378 29-567 43-6 281-12 561-17 841-2 85-5 173-49 245-50 80-140 123-225 162-263 120-484 129-764 131-481 5-962 79-1422 218-88 27-184 63-224 146-22 46-23 99-23 150-1 235-1 473 49 702 40 182 150 516 332 611 176 91 484-4 670-45 390 0 830-294 1160-470 127-68 247-144 362-226z"/>
   <path class="fil11" d="m14148 10012c-121 152-272 283-391 441-251 330-448 700-587 1091-356 998-363 2063-366 3108-1 347-2 695-3 1042-2 342 29 416 400 371 689-84 1405-226 2029-532 297-145 574-329 886-444 452-167 917-91 1365-200-195-588-334-1088-434-1694-103-624-196-1304-347-1920-90-369-258-714-429-1053-64-128-129-255-210-373-41-62-87-122-139-176-37-39-73-107-125-122-141-42-285-75-430-100-25-27-7-85-42-100-9-4-19-4-30-3-203 15-407 30-611 45-7 38 5 76 10 113 6 38 4 81-24 107-17 16-40 22-62 29-7 2-15 4-22 6-196 66-305 195-427 351-4 5-7 9-11 13z"/>
   <path class="fil8" d="m20033 2223-6832 18c-491 1-888 406-887 903l8 2951c1 498 400 900 891 899l6832-18c491-2 889-406 887-904l-7-2951c-2-497-401-900-892-898z"/>
   <path class="fil12" d="m16626 6985 1129-3-1129 3zm1865-5 1528-4h-2l-1526 4zm2441-933-4-1457 4 1454v3z"/>
   <polygon class="fil13" points="17755 6982 17755 6982 18491 6980 18491 6980"/>
   <path class="fil14" d="m16626 6985-1-314h3l3285-8c358-1 650-297 650-661v-2l-7-2805c-1-364-294-659-652-659h-2l-3287 9-1-313 3391-9h2c506 0 916 414 918 927l3 1440 4 1457c0 511-408 926-913 929l-1528 4-736 2-1129 3z"/>
   <path class="fil10" d="m19902 2536-6569 18c-359 1-651 298-650 662l8 2805c1 364 294 660 653 659l6569-17c359-1 651-298 650-663l-7-2805c-1-364-295-660-654-659z"/>
   <path class="fil15" d="m16628 6671-10-4126 3284-9h2c358 0 651 295 652 659l7 2805v2c0 364-292 660-650 661l-3285 8z"/>
   <path class="fil7" d="m15887 5134c-1-153-35-256-104-307-33-25-78-37-136-37-102 0-170 44-207 132-21 53-32 125-32 214l1 123c0 85 26 153 77 205 44 44 98 67 163 69 104-5 176-58 216-156 15-33 22-73 22-119v-124zm9-1132c-3-176-58-286-165-331-24-11-54-16-87-16-66 0-120 18-162 55-34 30-58 69-72 116s-19 106-17 177c5 112 22 193 54 242 40 65 107 98 199 97 91 0 158-35 200-104 35-59 51-138 50-236zm374 1314c0 171-59 316-177 436-119 119-262 179-429 180h-31c-168 0-312-60-430-180-117-120-177-264-177-433l-1-234c0-157 52-295 155-413 45-51 97-92 156-125-103-54-183-142-240-267-28-64-43-145-43-242v-140c-1-166 48-305 145-415 107-123 250-185 429-186h30c180 0 324 61 432 184 98 111 147 249 147 414v140c1 160-46 293-140 399-42 46-89 83-140 111 114 64 202 162 264 293 33 67 49 148 49 244l1 234z"/>
   <path class="fil7" d="m14275 3901c0-61-21-114-65-158-43-43-95-65-156-65s-112 22-155 66c-42 44-63 97-63 158l3 1407c1 61 22 114 65 158 42 43 94 65 155 65s113-22 156-66 64-97 64-158l-4-1407zm401 1412c1 171-58 316-177 435-119 120-261 180-427 180-169 1-312-59-431-178-118-120-178-264-178-434l-4-1404c0-172 59-317 177-437 119-120 262-181 429-181 169 0 312 59 430 180 118 120 177 265 178 434l3 1405z"/>
   <path class="fil7" d="m17846 3896c0-62-22-115-65-158-44-44-96-66-156-66-61 0-113 23-155 66-43 44-64 97-64 159l4 1406c0 62 21 114 64 158s95 65 155 65c61 0 113-22 156-66s65-96 65-158l-4-1406zm401 1411c0 171-59 316-177 436-119 119-261 179-428 180-168 0-312-60-430-179-119-119-178-264-179-434l-4-1404c0-171 59-317 178-437 118-120 261-180 429-181 169 0 312 60 430 180s177 265 177 435l4 1404z"/>
   <path class="fil7" d="m19390 3891c0-61-22-114-65-158-44-43-96-65-157-65-60 0-112 22-154 66-43 44-64 97-64 159l4 1406c0 62 21 114 64 158s94 65 155 65 113-22 156-66 65-97 64-158l-3-1407zm401 1412c0 171-59 316-178 436-118 119-260 179-427 179-168 1-312-59-431-178-118-120-178-264-178-434l-4-1404c0-171 59-317 177-437 119-120 262-180 430-181 168 0 312 60 430 180 117 120 176 265 177 435l4 1404z"/>
   <path class="fil7" d="m16467 4898 314-1v316l-313 1-1-316zm-2-895 313-1 1 320-313 1-1-320z"/>
   <path class="fil4" d="m25870 15457c1229 3360-499 7080-3859 8309s-7079-499-8308-3859 499-7080 3858-8308c3360-1229 7080 499 8309 3858z"/>
   <path class="fil8" d="m25059 15754c1065 2912-433 6136-3344 7201-2912 1065-6136-433-7201-3344-1065-2912 432-6136 3344-7201s6136 432 7201 3344z"/>
   <path class="fil16" d="m19800 23332c-983-1-1941-261-2780-738 69 29 138 58 207 85 784 401 1661 619 2560 619 640 0 1291-111 1928-343 2906-1063 4403-4278 3349-7185 3 6 5 12 7 18 1065 2912-432 6136-3344 7201-636 232-1287 343-1927 343z"/>
   <path class="fil17" d="m19787 23298c-899 0-1776-218-2560-619 665 261 1391 426 2120 426 616 0 1234-118 1818-396 2844-1355 4153-5384 3344-7201-562-1263-1380-2316-2494-2950 1364 587 2494 1710 3049 3212 1054 2907-443 6122-3349 7185-637 232-1288 343-1928 343z"/>
   <path class="fil7" d="m19411 17814 67 211c18 56 78 87 134 69l5127-1635c56-18 87-78 69-134l-68-211c-18-56-78-87-134-69l-5126 1635c-56 18-87 77-69 134z"/>
   <path class="fil4" d="m19861 17257-947-2589c-41-112-165-170-277-129s-170 165-129 277l947 2590c-95 114-129 275-74 425 82 224 330 339 554 257s339-330 257-554c-55-150-184-251-331-277z"/>
   <path class="fil8" d="m3969 13377 6847-810c456-54 869 269 923 722l551 4659c53 452-273 863-729 917l-6847 810c-456 54-869-270-923-722l-551-4659c-53-453 273-863 729-917z"/>
   <path class="fil7" d="m9495 16136 1632-193c123-14 211-125 196-247l-192-1621c-14-122-125-209-248-194l-1632 193c-123 14-211 125-196 247l191 1621c15 122 126 209 249 194z"/>
   <path class="fil7" d="m9798 18586 1632-193c123-15 211-126 197-248l-192-1620c-15-122-126-209-249-195l-1632 193c-123 15-211 125-196 247l192 1621c14 122 125 209 248 195z"/>
   <path class="fil7" d="m6947 16438 1632-193c123-15 211-126 196-248l-191-1620c-15-122-126-210-249-195l-1632 193c-123 15-211 125-196 247l191 1621c15 122 126 209 249 195z"/>
   <path class="fil7" d="m7251 18887 1631-193c123-15 211-125 197-247l-192-1621c-14-122-126-209-249-195l-1631 193c-123 15-211 126-197 248l192 1620c14 122 126 209 249 195z"/>
   <path class="fil7" d="m4399 16739 1632-193c123-15 211-125 197-248l-192-1620c-14-122-126-209-249-195l-1632 193c-122 15-210 126-196 248l192 1620c14 122 125 209 248 195z"/>
   <path class="fil7" d="m4703 19188 1632-193c123-14 211-125 196-247l-192-1621c-14-122-125-209-248-194l-1632 193c-123 14-211 125-197 247l192 1621c15 122 126 209 249 194z"/>
   <path class="fil11" d="m9828 12003 238-28c131-15 248 77 264 206l103 875c16 130-78 247-208 262l-238 28c-130 16-248-76-263-206l-103-875c-16-129 77-246 207-262z"/>
   <path class="fil11" d="m4497 12634 238-28c130-16 248 77 264 206l103 875c15 129-78 246-208 262l-238 28c-130 15-248-77-263-206l-104-875c-15-129 78-247 208-262z"/>
   <path class="fil3" d="m7623 15207c-1-12-1-23-5-34-34-96-110-126-169-209-27-38 17-146-78-142-36 1-121 17-196 21-109 6-251-53-355-120-408-264-733-632-1044-1006-17-22-35-44-41-71-11-49 20-95 49-136 132-188 248-388 343-597 86-187 157-386 153-592-3-205-93-418-268-525-132-80-334-138-443-30-194 193-340 711-396 1032-53 305-85 613-95 922-2 39-2 78 12 113 14 38 44 68 73 97 374 366 779 698 1192 1023 113 90 260 108 364 191 66 54 80 143 132 208 51 63 134 134 205 174 140 79 291 11 429-35 35-12 58-19 81-44 38-40 44-93 52-146 5-31 7-63 5-94z"/>
   <path class="fil4" d="m5069 12757-1 4c-65 342-95 694-80 1041 6 161 102 202 221 303 137 116 274 231 411 347 147-177 311-340 489-486-71-91-242-257-219-366 27-128 163-286 221-408 136-285 246-582 354-880 154-422 304-846 451-1271 36-104 72-211 73-321s-39-227-128-291c-95-67-226-63-332-17s-192 129-271 213c-142 151-271 313-386 485-107 160-202 329-296 497l-243 432c-47 84-94 167-132 254-64 148-102 306-132 464z"/>
   <path class="fil3" d="m14650 14506c1-10 3-22 1-32-14-97-80-139-120-229-18-39 43-134-48-148-33-5-116-6-187-16-104-14-227-96-312-178-115-111-234-231-330-357-202-264-397-580-546-879 482-266 790-818 765-1368-3-58-10-117-39-167-25-41-65-72-106-98-439-267-674 160-878 497-127 210-243 431-338 658-133 317-28 595 156 875 195 297 397 595 652 845 124 122 261 211 398 315 136 102 83 157 179 276 53 67 95 146 160 202 117 100 272 64 410 46 35-4 58-7 85-26 43-31 58-80 75-128 10-28 18-58 23-88z"/>
   <path class="fil11" d="m14010 9663c-565 380-1010 950-1272 1576-119 281-316 504-371 816-54 312-5 643 121 932 219 502 635 891 1068 1226 97-147 194-294 292-441 17-26 35-54 37-86 1-33-15-64-31-92-139-251-278-501-416-751-29-51-58-104-63-163-15-163 156-289 180-449 16 13 32 25 47 38-14-12 905-994 958-1054 201-230 408-471 495-764 185-626-485-1165-1045-788z"/>
   <path class="fil3" d="m24989 16088c-7-10-15-21-19-32-37-109 9-188 3-302-2-51-116-117-30-180 32-23 118-68 187-117 100-70 184-221 228-352 84-249 32-1011 360-1095 769-199 55 1253 23 1394-22 94 29 182 28 274s-25 212-59 296c-68 167-248 213-402 268-38 14-64 23-102 18-61-8-103-51-147-92-25-24-49-51-70-80z"/>
   <path class="fil9" d="m25761 10626c28 38 57 95 100 160 228 342 330 865 411 1262 171 845 158 1729-50 2567-8 31-18 65-45 81-27 17-61 11-91 5-191-39-383-78-574-116-41-9-84-18-116-46-61-54-53-150-42-231 76-531 82-1072 20-1605-29-252-158-562-142-810 13-224 143-465 161-709 10-147 26-364 130-480 138-154 184-153 238-78z"/>
   <path class="fil3" d="m31360 20175 25 1565c-10 435 29 868 55 1301 25 402-56 816 135 1189 60 117 187 198 284 63 74-104 40-284 58-404 139-908 397-1793 526-2702 134-953-234-928-1083-1012z"/>
   <polygon class="fil6" points="31449 23962 31348 24224 31843 24660 32297 24678 32444 24439 31833 23908"/>
   <path class="fil3" d="m30251 20190-286 1540c-99 688-324 1359-423 2048-23 158-11 331-77 481-65 146-192 152-304 53-150-133-80-371-78-552 19-1209-76-2400-99-3611-1-16 0-34 12-44 10-8 25-8 37-7 118 8 1211 125 1218 92z"/>
   <polygon class="fil6" points="29080 24027 28923 24258 29307 24795 29745 24916 29942 24715 29467 24061"/>
   <polygon class="fil8" points="32186 23918 32539 20849 32657 17478 32310 16291 30440 16000 28128 16397 28017 16846 28976 21555 28976 24024 29611 24059 30246 21625 30704 17639 31269 20884 31339 23883"/>
   <path class="fil8" d="m32743 12672c-1-10-2-21-4-31-190-1034 204-1822-547-2745-404-497-612-438-1150-570-125-30-380-121-366 70-171-5-343 12-509 49l-6-72c-299 70-694 92-970 217-296 134-564 569-716 841-523 933-311 2075-310 3104 0 286-193 3353-46 3360 916 47 1813-271 2720-186 537 51 1068 184 1595 258 36 5 76 6 104-17 31-25 37-70 40-110 55-748 56-1520 98-2276 34-619 120-1272 67-1892z"/>
   <path class="fil7" d="m31005 5018 610 2672c169 741 870 1234 1616 1172-43 14-84 31-125 49-629 281-991 967-832 1663l610 2672 3843-808-610-2672c-169-740-870-1234-1616-1171 42-15 84-31 124-49 629-282 992-968 833-1663l-610-2672-3843 807z"/>
   <path class="fil6" d="m35323 4350-4698 987c-130 28-259-54-289-183-29-128 53-255 183-282l4698-987c130-28 259 54 289 183 29 128-53 255-183 282z"/>
   <path class="fil6" d="m37202 12578-4697 987c-131 27-260-55-289-183-30-129 52-255 182-283l4698-987c130-27 259 55 289 183 29 129-53 255-183 283z"/>
   <path class="fil18" d="m36030 9999c-357-993-1115-1025-1215-1035-51-2-97-37-108-88-14-59 24-118 85-131 7-1 14-2 21-2v-1l4 1c7 0 13 1 20 2 967 142 1193 1254 1193 1254z"/>
   <path class="fil18" d="m34567 8918c-47 10-93-20-104-66-11-47 19-92 66-102s94 20 104 66c11 47-18 92-66 102z"/>
   <path class="fil4" d="m31741 7219 96 425c76 329 276 612 566 795 289 183 632 246 966 176l65-14c177 18 336 155 376 332l353 1546c50 215-88 428-306 474l44-10c-334 70-618 265-801 547-183 283-242 620-167 950l97 424 3398-714-97-425c-75-329-276-612-565-795-290-183-633-246-967-176l27-5c-218 46-436-92-485-308l-353-1545c-40-177 39-364 189-451l90-19c334-70 619-265 802-547 183-283 242-620 167-950l-97-424-3398 714z"/>
   <path class="fil7" d="m30004 10690c-66 386-40 782-13 1174 11 165 23 333 80 488 71 193 207 354 330 519 277 371 574 2602 727 3039 126-477 174-2771 300-3249 85-323 170-650 177-984 12-653-278-1270-562-1858-42-88-85-177-150-249-183-202-595-229-742 26-68 118-35 275-43 403-13 235-64 459-104 691z"/>
   <path class="fil10" d="m30895 10822c55 349 55 707 105 1058 27 192 69 382 104 573 97 542 131 1093 164 1643 6 108 13 217 19 325 4 69 32 182-1 248-35 67-119 74-183 100-91 37-177 90-252 154-140-41-234-179-267-321-32-142-14-290 2-435 139-1271 114-2560-74-3825-56 26-124-16-150-72s-22-121-17-182c0 10 294-1 316-2 175-9 228 32 228 226-86 41-70 165-46 256 21 84 38 169 52 254z"/>
   <path class="fil3" d="m34541 12191c-12-6-24-12-36-14-118-19-190 41-308 54-52 6-139-99-188 0-18 36-49 132-87 210-55 114-194 225-321 293-496 266-1052 390-1605 496-32 6-65 11-95 2-56-16-86-74-111-126-116-240-255-469-414-683-141-191-304-374-514-486-210-111-477-140-683-22-155 88-262 255-278 433-40 440 530 742 825 980 279 224 574 429 882 612 38 23 78 46 122 52 46 6 93-8 138-21 582-174 1145-399 1706-636 154-65 255-203 398-262 91-38 190-1 284-18 93-16 211-61 291-111 159-97 175-289 205-455 8-41 13-69 1-106-19-61-70-97-119-135-29-22-60-42-93-57z"/>
   <path class="fil8" d="m30463 13462c199 147 398 295 586 463 125 111 251 233 413 275 103 27 211 18 316 7 652-72 1291-266 1873-568 55-28 111-60 143-112 56-90 21-207-15-307-42-117-85-234-127-352-13-35-28-72-59-91-30-19-67-16-101-14-416 35-829 96-1236 183-130 28-269 58-392 10-266-102-508-754-652-1007-164-289-320-584-491-869-191-316-391-643-697-851-652-444-1519 128-1292 912 171 592 493 1141 898 1603 248 283 540 501 833 718z"/>
   <path class="fil19" d="m31075 7414c93 163 138 351 147 539 2 50 5 108 46 137 43 32 5 101 38 59s144-189 149-242c12-125 12-251 0-376-11-108-33-222-104-304-42-50-98-84-154-117-80-49-163-98-255-115-159-30-256 27-116 138 100 80 185 169 249 281z"/>
   <path class="fil3" d="m30079 9545c0 65 1 127 11 179 160 125 313 261 454 407 91-121 184-248 213-396 12-63 10-695 45-701 190-33 414-94 479-294 21-62 21-131 22-197 2-277 4-553 6-829 1-96 1-194-32-283-57-156-203-248-346-307-365-149-791-143-1128 69-90 56-174 129-226 227-80 152-69 340-57 515 11 161 23 323 34 485 13 186 41 400 186 498 76 52 175 62 241 129 109 111 98 318 98 498z"/>
   <path class="fil6" d="m30681 8821c-99 67-209 71-319 37-47-14-27-93 20-78 91 27 178 26 260-29 42-28 80 43 39 70zm689-389c-3-51-26-201-103-107-20 25-25 60-26 93s0 66-10 97c-24 71-102 104-172 102-28 0-57-5-81-19-24-13-43-35-62-56-44-52-89-103-134-155-78-88-231-50-335-36-120 15-240 51-338 130-9 8-19 17-29 25-23 20-47 41-75 54-92 45-207-2-272-86-30-39-57-89-104-95-36-5-71 21-89 54-19 34-24 74-26 114-10 142 10 290 72 416 134 275 393 308 654 302 103-2 206-5 309-7 188-5 388-12 546-122 140-96 223-261 257-433 18-88 23-180 18-271z"/>
   <path class="fil6" d="m31409 6935c18-67 32-135 40-204-63 23-133 29-199 17 0-39-1-79-1-119 0-33-447-56-483-59-340-28-651-54-959 128-263 156-431 389-471 692-39 289 56 667 223 908-1-78-45-259-27-333 11-73 37-144 72-209 70-131 178-240 303-319 199-125 431-191 662-223 212-29 471-57 680-1 101 28 118 53 179-49 10-18 96-227 87-227-35-1-70-1-106-2z"/>
</svg>
