<?xml version="1.0" encoding="UTF-8"?>
<!DOCTYPE svg  PUBLIC '-//W3C//DTD SVG 1.1//EN'  'http://www.w3.org/Graphics/SVG/1.1/DTD/svg11.dtd'>
<svg width="8.4666mm" height="8.4668mm" clip-rule="evenodd" fill-rule="evenodd" image-rendering="optimizeQuality" shape-rendering="geometricPrecision" text-rendering="geometricPrecision" version="1.1" viewBox="0 0 423 423" xml:space="preserve" xmlns="http://www.w3.org/2000/svg">
 <defs>
  <style type="text/css">
   <![CDATA[
    .fil1 {fill:#FEFEFE}
    .fil0 {fill:#D82F83}
   ]]>
  </style>
 </defs>
   <path class="fil0" d="m212 423c-117 0-212-94-212-211s95-212 212-212 211 95 211 212-94 211-211 211z"/>
   <path class="fil1" d="m168 79c-19 1-35 2-50 10-14 7-22 16-30 29-3 7-8 20-8 29-1 7-1 18-1 26v76l1 28c3 18 6 25 14 38 1 2 1 1 1 2h1l2 2c0 1 1 1 2 2 4 5 6 7 13 11 9 5 16 8 28 10 11 2 24 3 36 3h76l21-1c6-1 15-3 21-5 4-1 7-2 10-4 3-1 6-4 9-5l3-3c2-1 2-2 4-3 2-2 3-4 6-6 2-4 5-7 7-12 8-15 9-29 10-46 1-25 0-50 0-75v-24c0-6-3-20-2-23-2-2-2-7-3-10-7-19-13-21-15-25-2-1-6-6-12-10-5-3-9-6-15-8-26-9-101-6-129-6zm-57 218c3 8 14 16 23 19 18 7 58 5 79 5 8 0 35 1 41 0l11-1c7 0 13-1 19-2 7-2 9-4 15-7 3-2 8-7 10-10 4-5 5-8 7-14 2-5 3-9 3-15 1-6 1-12 2-18l-1-53v34c1-3 1-6 1-7v-27c0-18 0-36-2-54-5-28-22-42-53-44-11 0-92-2-96 0-10-2-34 2-44 8-6 4-10 8-14 13-2 4-7 15-7 20-2 3-2 11-2 15l-1 41v15l1 45c0 8 0 14 2 21 1 5 3 13 6 16zm166-105c4 18 3 24-1 42-2 4-2 7-7 15-3 5-10 12-11 13-2 1-5 4-7 6-3 2-6 3-9 5-6 3-11 5-19 6-17 2-32 0-45-7-13-8-18-15-26-27-3-6-5-9-7-17-1-6-2-14-2-20l2-10c6-20 7-23 21-37 29-29 92-24 111 31zm-109 15c-5 15 7 38 26 46 10 4 21 5 31 1 7-2 19-9 22-15 13-12 16-54-18-68-21-9-43-1-55 17-3 4-7 13-6 19zm102-76c2-2 3-4 7-5s8-1 12 0c5 3 10 9 9 18-2 9-11 16-22 12-9-4-12-15-6-25z"/>
   <path class="fil1" d="m145 198-2 10c0 6 1 14 2 20 2 8 4 11 7 17 8 12 13 19 26 27 13 7 28 9 45 7 8-1 13-3 19-6 3-2 6-3 9-5 2-2 5-5 7-6 1-1 8-8 11-13 5-8 5-11 7-15 4-18 5-24 1-42-19-55-82-60-111-31-14 14-15 17-21 37zm23 9c-5 15 7 38 26 46 10 4 21 5 31 1 7-2 19-9 22-15 13-12 16-54-18-68-21-9-43-1-55 17-3 4-7 13-6 19z"/>
</svg>
