<?xml version="1.0" encoding="UTF-8"?>
<!DOCTYPE svg  PUBLIC '-//W3C//DTD SVG 1.1//EN'  'http://www.w3.org/Graphics/SVG/1.1/DTD/svg11.dtd'>
<svg width="88.717mm" height="167.29mm" clip-rule="evenodd" fill-rule="evenodd" image-rendering="optimizeQuality" shape-rendering="geometricPrecision" text-rendering="geometricPrecision" version="1.1" viewBox="0 0 6343 11960" xml:space="preserve" xmlns="http://www.w3.org/2000/svg">
 <defs>
  <style type="text/css">
   <![CDATA[
    .fil31 {fill:#FEFEFE;fill-rule:nonzero}
    .fil21 {fill:#FBC932;fill-rule:nonzero}
    .fil22 {fill:#F9BE2C;fill-rule:nonzero}
    .fil23 {fill:#F5AA26;fill-rule:nonzero}
    .fil24 {fill:#E8476F;fill-rule:nonzero}
    .fil4 {fill:#E73C67;fill-rule:nonzero}
    .fil25 {fill:#E72F58;fill-rule:nonzero}
    .fil9 {fill:#E40082;fill-rule:nonzero}
    .fil28 {fill:#F7F6F8;fill-rule:nonzero}
    .fil11 {fill:#F3CEA0;fill-rule:nonzero}
    .fil12 {fill:#F3C68F;fill-rule:nonzero}
    .fil34 {fill:#F1BEA3;fill-rule:nonzero}
    .fil35 {fill:#E9AB8E;fill-rule:nonzero}
    .fil30 {fill:#E99F20;fill-rule:nonzero}
    .fil29 {fill:#ECEBEB;fill-rule:nonzero}
    .fil8 {fill:#E07E92;fill-rule:nonzero}
    .fil3 {fill:#E9EBED;fill-rule:nonzero}
    .fil36 {fill:#D67085;fill-rule:nonzero}
    .fil37 {fill:#D15470;fill-rule:nonzero}
    .fil18 {fill:#09B9EE;fill-rule:nonzero}
    .fil38 {fill:#5F5A70;fill-rule:nonzero}
    .fil19 {fill:#00B1EC;fill-rule:nonzero}
    .fil13 {fill:#49464B;fill-rule:nonzero}
    .fil0 {fill:#573E92;fill-rule:nonzero}
    .fil33 {fill:#524A8D;fill-rule:nonzero}
    .fil20 {fill:#00ABE9;fill-rule:nonzero}
    .fil1 {fill:#543A90;fill-rule:nonzero}
    .fil10 {fill:#2F2C30;fill-rule:nonzero}
    .fil2 {fill:#50378E;fill-rule:nonzero}
    .fil7 {fill:#3C4057;fill-rule:nonzero}
    .fil32 {fill:#3F3A76;fill-rule:nonzero}
    .fil26 {fill:#00A6CE;fill-rule:nonzero}
    .fil27 {fill:#0090B3;fill-rule:nonzero}
    .fil5 {fill:#292C45;fill-rule:nonzero}
    .fil6 {fill:#33347D;fill-rule:nonzero}
    .fil43 {fill:#006838;fill-rule:nonzero}
    .fil44 {fill:#009444;fill-rule:nonzero}
    .fil52 {fill:#0F303F;fill-rule:nonzero}
    .fil51 {fill:#16485E;fill-rule:nonzero}
    .fil53 {fill:#1C5975;fill-rule:nonzero}
    .fil41 {fill:#2CC971;fill-rule:nonzero}
    .fil39 {fill:#382F2A;fill-rule:nonzero}
    .fil46 {fill:#39B54A;fill-rule:nonzero}
    .fil40 {fill:#594A42;fill-rule:nonzero}
    .fil47 {fill:#8DC63F;fill-rule:nonzero}
    .fil45 {fill:#911722;fill-rule:nonzero}
    .fil50 {fill:#9FB603;fill-rule:nonzero}
    .fil48 {fill:#BE1E2D;fill-rule:nonzero}
    .fil49 {fill:#C1D64B;fill-rule:nonzero}
    .fil14 {fill:#DB8300;fill-rule:nonzero}
    .fil42 {fill:#F2F2F2;fill-rule:nonzero}
    .fil15 {fill:#FDA014;fill-rule:nonzero}
    .fil16 {fill:#FDC63A;fill-rule:nonzero}
    .fil17 {fill:white;fill-rule:nonzero}
   ]]>
  </style>
 </defs>
   <polygon class="fil0" points="6343 3275 5076 4011 3801 3275 5068 2538"/>
   <polygon class="fil1" points="6343 3275 6338 9013 5071 9750 5076 4011"/>
   <polygon class="fil2" points="5076 4011 5071 9750 3796 9013 3801 3275"/>
   <path class="fil3" d="m4111 3732v-1c-49-28-72-12-72 21 0 80 114 112 114 165-1 19-14 25-47 7-24-14-48-39-62-61l-10 18c15 25 43 52 72 69 50 29 73 13 73-20 0-79-114-111-114-164 0-19 14-27 46-8 17 9 35 26 52 47l8-19c-15-21-37-41-59-54h-1z"/>
   <polygon class="fil3" points="4344 3869 4189 3779 4189 3806 4253 3843 4253 4032 4279 4047 4280 3858 4344 3896"/>
   <polygon class="fil3" points="4506 3962 4373 3886 4373 4101 4509 4180 4509 4153 4400 4090 4400 4020 4494 4075 4494 4049 4400 3994 4400 3928 4506 3989"/>
   <path class="fil3" d="m4626 4032-73-43v216l26 16 1-66 46 27c49 28 78 17 79-30 0-47-30-92-79-120zm-46 97v-97l46 26c34 20 52 48 52 79s-18 38-53 18l-45-26z"/>
   <polygon class="fil3" points="4926 4205 4897 4188 4801 4274 4801 4295 4905 4356 4905 4409 4931 4424 4931 4371 4967 4391 4967 4365 4931 4344 4931 4297 4906 4283 4906 4330 4834 4288"/>
   <path class="fil4" d="m5053 3331c-31-18-124-76-124-76-11-6-24-6-35 0l-3 2c-15 8-15 72 0 81l128 74c25 10 44-5 53-13 15-14 25-44-19-68z"/>
   <path class="fil5" d="m5083 3363c0 11-6 21-13 27-9 9-29 24-55 14l-130-76c1 5 4 8 6 10l128 74c25 10 44-5 53-13s16-21 11-36z"/>
   <path class="fil6" d="m5044 2621h-104-5-103c-3 0 64 641 65 646 6 54 37 51 37 51 24 0 52-3 59-57 0-5 54-640 51-640z"/>
   <path class="fil7" d="m5005 3308c-11 5-22 12-30 21-5 6 3 15 8 9 7-8 16-15 26-19 6-2 3-14-4-11z"/>
   <path class="fil7" d="m5028 3324c-12 5-22 12-31 22-5 5 4 14 8 8 7-8 16-14 26-18 7-3 4-15-3-12z"/>
   <path class="fil4" d="m4997 3284c-1-2-1-4-2-6-1-3-3-5-5-8-7-7-19-2-27 2-7 4-19 12-21 20-4 10 6 17 11 23 1 2 2 4 4 5 4 6 10 4 14 0 7-5 14-10 22-12 10-3 8-15 4-24z"/>
   <path class="fil4" d="m5339 3248c-32-18-125-75-125-75-11-7-24-7-35-1l-2 2c-15 8-16 72-1 81l128 74c26 10 44-5 53-13 15-14 25-44-18-68z"/>
   <path class="fil5" d="m5369 3280c-1 11-6 21-14 27-9 9-29 24-55 14l-130-76c2 5 4 8 6 10l128 74c26 10 44-5 53-13s16-21 12-36z"/>
   <path class="fil6" d="m5236 2549-80 77h-5-103c-2 0 165 117 178 276 11 139-54 270-52 293 6 54 90 42 96-12 10-33 24-59 42-101 70-162 53-347-46-492-17-26-30-41-30-41z"/>
   <path class="fil7" d="m5291 3225c-12 5-23 12-31 22-5 5 3 14 8 8 7-8 16-15 26-19 7-2 4-14-3-11z"/>
   <path class="fil7" d="m5313 3241c-12 5-22 12-31 22-5 5 4 14 9 8 7-8 15-14 25-18 7-3 4-15-3-12z"/>
   <path class="fil4" d="m5282 3201c0-2-1-4-2-6-1-3-3-5-5-8-7-7-19-2-27 2-7 4-18 12-21 21s6 16 11 22c2 2 2 4 4 5 4 6 10 4 14 1 7-6 14-11 22-13 10-3 8-15 4-24z"/>
   <path class="fil8" d="m5356 1113v3-3z"/>
   <path class="fil9" d="m5298 1120c-24-8-46-5-59-5-12 0-16 8-16 8l-66 773c-35-18-77-19-121 7-48 28-89 51-99 57-1 0-12 7-28 16-61 35-100 98-104 168-8 116-23 382-20 490 1 32 25 59 57 65 184 37 368-56 422-159 0 0 0-1 1-2 12-2-15-268-11-496-1-5 76-740 90-848 4-32-15-64-46-74z"/>
   <path class="fil10" d="m5309 1612c-1 39-44 266-68 365-5 20-28 28-44 16-63-49-192-146-243-176l-76-43 431-162z"/>
   <path class="fil11" d="m5041 1433c-140 0-253 114-253 253 1 114 76 223 180 259v37c0 32 25 57 57 57h16 1c43-1 77-36 77-79v-14c92-30 145-116 145-228 0-139-83-285-223-285z"/>
   <path class="fil12" d="m4984 1984c1-14 5-29 4-43-1-15-12-28-15-41-7-20-7-36-5-58 7-65 12-65 72-77 48-10 91-22 135-43 30-14 56-35 86-48-16-124-95-241-220-241-140 0-253 114-253 253 1 114 76 223 180 259v37c0 19 9 35 23 46-5-11-7-25-7-44z"/>
   <path class="fil10" d="m5237 1490-51-29c-88-51-197-53-285-2-78 44-136 102-135 222 2 130 56 323 83 347 9 7 65 25 104 36 20 6 39-10 37-31-9-96-34-303 4-307 226-22 315-112 315-112 0-51-28-99-72-124z"/>
   <path class="fil13" d="m4967 1499s85 30 149 92c0 0-50-87-149-92z"/>
   <path class="fil9" d="m4908 2479 12-307-107-704s-5-8-17-8c-13-1-34-3-58 5-31 10-51 42-46 74 14 108 106 588 105 593 2 120-4 250-9 347h120z"/>
   <path class="fil12" d="m5342 1090c0-11-1-29-11-36-11-7-28 1-39 5-20 6-39 15-58 25-2 1-3 2-3 4-2 1-3 3-3 5-6 26-5 67 24 79 29 11 62-7 78-31 9-15 13-33 12-51z"/>
   <path class="fil12" d="m4785 1414c-3-10-8-28-19-33-12-4-27 8-37 13-18 11-35 24-51 37-1 2-2 3-3 5s-1 3-1 6c0 27 9 66 40 71s60-19 69-47c6-16 6-35 2-52z"/>
   <path class="fil11" d="m4773 1363c-9-16-32-25-54-18-41 11-108 102-32 112 37 4 76-28 88-61 4-13 3-24-2-33z"/>
   <path class="fil11" d="m5341 1038c-5-19-25-31-48-30-43 2-128 77-55 103 34 12 80-12 98-41 7-12 8-23 5-32z"/>
    <path class="fil14" d="m4908 1136 5-3c226-133 409-451 408-712 0-131-46-222-121-266 43 25 86 50 128 75 75 43 121 135 121 265 1 261-182 579-409 713l-4 3c-115 66-219 72-295 28-21-12-42-24-64-37-21-12-42-25-64-37 76 44 180 38 295-29z"/>
    <path class="fil14" d="m4905 70 5-2c140-80 268-87 360-33 43 24 86 49 128 74-92-54-220-47-361 33l-4 3c-283 163-512 560-512 886 1 162 58 275 150 329-42-25-85-50-128-74-92-54-149-168-149-330-1-325 228-722 511-886z"/>
    <path class="fil15" d="m5036 1211c-229 132-415 25-416-237-1-263 185-584 413-716l5-2c226-128 410-22 411 239s-182 579-409 713l-4 3zm-3-1066c-283 163-512 560-512 886 1 325 232 457 515 293l5-3c281-165 508-559 507-883s-229-455-511-296l-4 3z"/>
    <polygon class="fil16" points="5046 1055 4970 1011 4918 1041 4994 1085"/>
    <polygon class="fil16" points="5046 980 4969 935 4970 1011 5046 1055"/>
    <path class="fil16" d="m5078 825c-29 44-65 81-109 110l77 45c43-30 79-67 108-111-19-11-24-14-76-44 25 14 50 29 76 44 28-44 41-93 40-147l-76-44c1 54-12 103-40 147z"/>
    <polygon class="fil16" points="5193 720 5117 676 5118 678 5194 722"/>
    <polygon class="fil17" points="4994 1009 4918 965 4918 1041 4994 1085"/>
    <polygon class="fil17" points="5193 720 5117 676 5010 738 5086 782"/>
    <path class="fil17" d="m4905 864 76 44c8 5 21 3 38-7 21-12 37-28 49-47s18-43 18-72l-76-44c0 29-6 53-18 72s-28 35-49 46c-17 10-30 13-38 8z"/>
    <path class="fil16" d="m4818 976-2-1 76 44 2 1c-25-14-50-29-76-44 26 15 51 30 76 44 25 13 58 9 100-11l-76-44c-42 20-75 24-100 11z"/>
    <path class="fil16" d="m5008 765-6-4-4-2-3-2-4-2-3-2-8-4-3-2-4-3-3-2-4-2-3-2-4-2-3-2-3-1 3 1 3 2 4 2 3 2 4 2 3 2 4 3 3 2 8 4 3 2 4 2 3 2 4 2 6 4zm-104 98 1 1 76 44h-1c-8-6-12-17-12-35 0-20 4-37 12-52 7-14 20-30 38-50-3-2-7-4-10-6 3 2 7 4 10 6l10-10-76-45c-4 4-7 7-10 11l6 3 5 3-5-3-6-3c-18 20-31 36-38 49-8 16-12 33-12 53 0 17 4 29 12 34z"/>
    <path class="fil16" d="m5066 582c-24 38-62 83-114 134l76 45c52-51 90-96 114-135-25-15-51-30-76-44 25 14 51 29 76 44 24-39 36-82 36-130 0-41-12-68-35-81l-76-45c23 14 35 41 35 82 0 47-12 91-36 130z"/>
    <path class="fil17" d="m4816 975 76 44c-23-13-34-41-34-83 0-47 12-92 37-133 25-42 63-86 113-133l-76-45c-50 48-88 92-113 134-25 41-37 86-37 133 0 42 11 70 34 83z"/>
    <path class="fil17" d="m5054 523-76-44 2 1c8 6 12 19 12 36s-4 33-12 47-24 35-48 62l76 45c24-27 40-48 48-63 8-14 12-30 12-47s-4-29-12-36l-2-1z"/>
    <path class="fil16" d="m4903 527c-10 17-14 39-14 64l76 44c0-25 5-46 14-64-25-14-51-29-76-44z"/>
    <path class="fil16" d="m4943 486c-17 10-31 24-40 41 25 15 51 30 76 44 9-17 23-31 40-41 16-9 28-12 35-7l-76-44c-7-5-19-2-35 7z"/>
    <polygon class="fil16" points="5037 346 4961 302 4961 381 5037 425"/>
    <path class="fil17" d="m5143 415-76-45-3-1c-26-13-60-9-103 12l76 44c43-21 77-25 103-12l3 2z"/>
    <polygon class="fil17" points="4857 695 4780 651 4781 653 4857 697"/>
    <polygon class="fil16" points="4965 635 4889 591 4781 653 4857 697"/>
    <path class="fil17" d="m4986 456-76-44c-41 29-73 65-96 108-23 42-34 86-34 131l77 44c-1-45 10-89 33-131s55-78 96-108z"/>
    <path class="fil16" d="m4857 697 108-62c0-25 5-46 14-64 9-17 23-31 40-41 18-10 30-12 37-6 8 7 12 19 12 36s-4 33-12 47c-8 15-24 36-48 63-50 47-88 91-113 133-25 41-37 86-37 133 0 44 12 72 36 84 25 13 58 9 100-11v76l52-30v-75c43-30 79-67 108-111 28-44 41-93 40-147l-1-2-107 62c0 29-6 53-18 72s-28 35-49 47c-18 10-31 12-39 7-8-6-12-17-12-35 0-20 4-37 12-52 9-16 24-35 48-60 52-51 90-96 114-135s36-82 36-130c0-43-13-70-38-83-26-13-60-9-103 12v-79l-51 30v80c-41 30-73 66-96 108s-34 86-33 131v2zm-237 277c-1-263 185-584 413-716l5-2c92-52 177-65 246-45 83 39 135 133 136 271 0 259-181 574-405 707l-5 3c-122 70-231 72-306 18-52-49-84-130-84-236z"/>
    <path class="fil17" d="m4986 376v80c-41 30-73 66-96 108s-34 86-33 131v2l108-62c0-25 5-46 14-64 9-17 23-31 40-41 18-10 30-12 37-6 8 7 12 19 12 36s-4 33-12 47c-8 15-24 36-48 63-50 47-88 91-113 133-25 41-37 86-37 133 0 44 12 72 36 84 25 13 58 9 100-11v76l52-30v-75c43-30 79-67 108-111 28-44 41-93 40-147l-1-2-107 62c0 29-6 53-18 72s-28 35-49 47c-18 10-31 12-39 7-8-6-12-17-12-35 0-20 4-37 12-52 9-16 24-35 48-60 52-51 90-96 114-135s36-82 36-130c0-43-13-70-38-83-26-13-60-9-103 12v-79l-51 30z"/>
   <polygon class="fil18" points="5076 5767 3809 6503 2534 5767 3801 5030"/>
   <polygon class="fil19" points="5076 5767 5071 9752 3804 10488 3809 6503"/>
   <polygon class="fil20" points="3809 6503 3804 10488 2529 9752 2534 5767"/>
   <path class="fil3" d="m2836 6346c-49-28-71-12-71 21 0 80 113 112 113 165 0 19-14 25-46 7-24-14-48-39-62-61l-10 18c15 24 42 51 70 68l3 1c49 28 71 13 72-19 0-80-114-112-114-165 0-19 14-26 46-8 16 10 35 26 51 47l9-19c-15-21-37-41-59-54l-2-1z"/>
   <polygon class="fil3" points="3070 6484 2915 6394 2914 6421 2979 6458 2978 6647 3005 6662 3005 6473 3070 6510"/>
   <polygon class="fil3" points="3232 6577 3099 6500 3098 6716 3235 6795 3235 6768 3125 6705 3126 6635 3220 6690 3220 6664 3126 6609 3126 6543 3232 6604"/>
   <path class="fil3" d="m3352 6647-73-43-1 216 27 16v-66l47 27c49 28 78 17 78-30 1-47-29-92-78-120zm-47 97 1-97 45 26c35 20 53 48 53 79-1 31-19 38-53 18l-46-26z"/>
   <path class="fil3" d="m3651 6819-124-72v27l90 52-47 40v21l15 9c32 19 46 42 46 64 0 24-16 29-45 13-23-13-43-35-56-56l-13 18c16 25 42 49 68 65l3 1c46 27 69 11 70-24v-3c-1-33-20-67-57-93l50-41v-21z"/>
   <polygon class="fil21" points="3814 7954 2547 8691 1272 7954 2539 7218"/>
   <polygon class="fil22" points="3814 7954 3809 10488 2542 11225 2547 8691"/>
   <polygon class="fil23" points="2547 8691 2542 11225 1267 10488 1272 7954"/>
   <polygon class="fil24" points="2547 9844 1280 10580 5 9844 1272 9108"/>
   <polygon class="fil4" points="2547 9844 2542 11224 1275 11960 1280 10580"/>
   <polygon class="fil25" points="1280 10580 1275 11960 0 11224 5 9844"/>
   <path class="fil26" d="m1365 9752v35c0 11-7 21-20 29v-36c13-8 20-18 20-28z"/>
   <polygon class="fil26" points="1345 9780 1345 9816 956 10042 956 10006"/>
   <polygon class="fil26" points="858 10006 857 10042 529 9852 529 9816"/>
   <path class="fil27" d="m1345 9723c27 16 27 41 0 57l-389 226c-27 16-71 16-98 0l-329-190 17-40 24 13 447-256 328 190z"/>
   <path class="fil26" d="m956 10006v36c-27 15-71 15-99 0l1-36c27 16 71 16 98 0z"/>
   <path class="fil28" d="m1341 9718v34c0 10-6 20-19 27v-34c13-7 19-17 19-27z"/>
   <polygon class="fil28" points="1322 9745 1322 9779 952 9995 952 9961"/>
   <polygon class="fil28" points="857 9961 857 9995 545 9814 545 9780"/>
   <path class="fil29" d="m1322 9691c26 15 26 39 0 54l-370 216c-26 15-68 15-95 0l-312-181 464-270 313 181z"/>
   <path class="fil28" d="m952 9961v34c-26 15-69 15-95 0v-34c27 15 69 15 95 0z"/>
   <polygon class="fil26" points="1345 9694 1345 9730 956 9955 956 9920"/>
   <path class="fil30" d="m1345 9694-238 138v36l238-138c13-8 20-19 20-29v-36c0 11-7 21-20 29z"/>
   <polygon class="fil26" points="858 9920 857 9955 529 9766 529 9730"/>
   <path class="fil21" d="m1345 9637c27 15 27 41 0 57l-389 226c-27 15-71 15-98 0l-329-190 488-283 328 190z"/>
   <path class="fil19" d="m1108 9832-152 88c-27 15-71 15-98 0l-329-190 196-113 383 215z"/>
   <path class="fil26" d="m956 9920v35c-27 16-71 16-99 0l1-35c27 15 71 15 98 0z"/>
   <path class="fil26" d="m558 9747h1l-30-17c-15 35-17 74-4 110l4 12 29 17-5-13c-12-35-11-75 5-109z"/>
   <polygon class="fil21" points="913 9776 866 9803 953 9853 1e3 9826"/>
   <polygon class="fil21" points="855 9810 824 9828 882 9861 913 9843"/>
   <path class="fil6" d="m2104 9901c-1-2-3-4-4-6-1 0-1-1-2-2l-8-8c-1 0-2-1-3-1l-3-3c-6-3-12-5-18-7l6 9 2 2 32 19v-1c-1 0-2-1-2-2z"/>
   <path class="fil6" d="m1855 9966s0-1-1-1v-1s0-1-1-1v-1-3c0-8 6-18 13-22l134-78c4-2 9-4 13-6 1-1 2-1 3-2 4-1 8-3 11-4 1 0 1-1 2-1l12-3c1 0 2-1 3-1 3-1 6-1 10-1 0-1 1-1 2-1h11 3c2 0 5 1 8 1 1 0 2 0 3 1 3 0 6 1 9 2 1 1 2 1 2 1 3 1 6 2 8 4h1l-32-18c-26-15-62-12-101 10l-134 77c-7 5-13 14-13 23 0 4 1 7 4 8l32 18h-1l-1-1z"/>
   <path class="fil0" d="m2127 9874c-7-11-17-19-27-25-2-2-5-3-8-4 0 0-1 0-2-1-3-1-6-2-9-2-1-1-2-1-3-1-3 0-6-1-8-1h-3-11c-1 0-2 0-2 1-4 0-7 0-10 1-1 0-2 1-3 1l-12 3c-1 0-1 1-2 1-3 1-7 3-11 4-1 1-2 1-3 2-4 2-9 4-13 6l-134 78c-7 4-13 14-13 22v3 1c1 0 1 1 1 1v1c1 0 1 1 1 1l1 1c2 2 6 2 10 0l134-78c24-14 47-19 66-15 6 2 12 4 18 7l3 3c1 0 2 1 3 1l8 8c1 1 1 2 2 2 1 2 3 4 4 6 0 1 1 2 2 2 3 2 6 2 9 0 2-2 4-3 6-5 7-8 9-18 6-24z"/>
   <path class="fil6" d="m1765 9683c-1-2-2-4-4-6 0-1-1-2-2-2-1-1-2-3-3-4l-2-2c-1-1-2-1-3-2l-2-2c-1-1-2-2-3-2-6-4-12-6-19-7 2 2 4 5 6 8 1 1 2 2 3 2l32 19h-1c0-1-1-1-2-2z"/>
   <path class="fil6" d="m1517 9748-1-1c0-1-1-1-1-1v-2-1c-1 0-1-1-1-2 0-9 6-18 13-23l134-77c5-3 9-5 13-7 1 0 3-1 4-1 3-2 7-3 11-5h1c4-2 8-3 12-4h3c4-1 7-2 10-2h2c4-1 8-1 11-1 1 0 2 1 3 1 3 0 6 0 9 1h2c3 1 7 2 10 3 1 0 1 0 2 1 2 1 5 2 7 3 1 0 1 1 2 1l-32-19c-27-15-63-12-101 10l-135 78c-7 4-13 14-13 22 0 4 2 7 4 8l32 19-1-1z"/>
   <path class="fil0" d="m1788 9656c-7-12-16-20-27-26-2-1-5-2-7-3-1-1-1-1-2-1-3-1-7-2-10-3h-2c-3-1-6-1-9-1-1 0-2-1-3-1-3 0-7 0-11 1h-2c-3 0-6 1-10 2h-3c-4 1-8 2-12 4h-1c-4 2-8 3-11 5-1 0-3 1-4 1-4 2-8 4-13 7l-134 77c-7 5-13 14-13 23 0 1 0 2 1 2v1 2s1 0 1 1l1 1c3 2 6 2 10 0l135-78c23-13 46-18 65-14 7 1 13 3 19 7 1 0 2 1 3 2l2 2c1 1 2 1 3 2l2 2c1 1 2 3 3 4 1 0 2 1 2 2 2 2 3 4 4 6 1 1 2 1 2 2 3 1 6 1 10-1 2-1 4-3 6-5 6-8 8-18 5-23z"/>
   <path class="fil6" d="m1447 9745v5h-1c1-2 1-4 1-5z"/>
   <path class="fil6" d="m1454 9727c0 1-1 2-1 3h-1c1-1 2-2 2-3z"/>
   <path class="fil6" d="m1458 9723c-1 0-2 1-2 2 0-1 1-1 2-2z"/>
   <path class="fil6" d="m1449 9738c0 1-1 3-1 4 0-1 1-3 1-4z"/>
   <path class="fil6" d="m1451 9732c0 1-1 3-1 4 0-1 1-3 1-4z"/>
   <path class="fil6" d="m1461 9719c0 1-1 1-2 2 1-1 2-1 2-2z"/>
   <path class="fil6" d="m1446 9752v8-8z"/>
   <path class="fil6" d="m1476 9712c-1 0-2 1-2 1h-1c1 0 2-1 3-1z"/>
   <path class="fil6" d="m1482 9711c-1 0-2 1-3 1 1 0 2-1 3-1z"/>
   <path class="fil6" d="m1471 9714c-1 0-2 0-3 1 1-1 2-1 3-1z"/>
   <path class="fil6" d="m1466 9716c-1 0-2 1-3 2 1-1 2-2 3-2z"/>
   <path class="fil6" d="m1605 9876s0 1-1 2c0 2-1 4-1 5s-1 2-1 3c-1 2-1 3-2 4 0 1-1 2-1 3-1 1-2 2-2 4-1 0-2 1-2 2-1 1-2 2-2 3l-7 7c-1 1-2 1-3 2s-2 1-2 2h-1l32-18c6-4 11-9 16-16l-21-12c-1 3-1 6-2 9z"/>
   <path class="fil6" d="m1454 9681c2 0 3 0 4-1 1 0 2 0 4-1h4c1 0 2-1 3-1 2 0 3 0 5 1 1 0 2-1 4 0h4c2 1 3 1 4 1 2 0 4 1 6 1 1 1 2 1 3 1 2 1 4 2 7 3 1 0 2 1 3 1 3 2 6 3 9 5 47 28 86 91 93 147l42 24c2-12 6-22 11-30l-21-13c-7-56-46-119-93-146-26-15-50-17-67-7l-32 19h1c1-1 2-2 3-2 1-1 2-1 3-2z"/>
   <path class="fil6" d="m1674 9884v7-7z"/>
   <path class="fil6" d="m1679 9864c0 1 0 2-1 3 1-1 1-2 1-3z"/>
   <path class="fil6" d="m1710 9843c-1 0-2 0-3 1 1-1 2-1 3-1z"/>
   <path class="fil6" d="m1694 9848c-1 0-2 1-2 1s1-1 2-1z"/>
   <path class="fil6" d="m1699 9845c-1 1-2 1-2 1s1 0 2-1z"/>
   <path class="fil6" d="m1682 9859c0 1-1 2-1 3 0-1 1-2 1-3z"/>
   <path class="fil6" d="m1690 9851c-1 0-2 1-2 2h-1c1-1 2-2 3-2z"/>
   <path class="fil6" d="m1681 9930c-1-4-3-9-4-14 1 5 3 10 4 14z"/>
   <path class="fil6" d="m1722 9994c-5-4-9-9-13-13 4 4 8 9 13 13z"/>
   <path class="fil6" d="m1686 9854v1c-1 0-2 1-2 2 0-1 1-2 2-3z"/>
   <path class="fil6" d="m1675 9876v5-5z"/>
   <path class="fil6" d="m1677 9870c0 1-1 2-1 4 0-1 1-3 1-4z"/>
   <path class="fil6" d="m1691 9954c-3-6-6-12-8-18 2 6 5 12 8 18z"/>
   <path class="fil6" d="m1704 9844c-1 0-1 0-2 1 1-1 1-1 2-1z"/>
   <path class="fil31" d="m1810 9970c0-43-30-96-68-118-2-1-4-2-7-3 0 0-1-1-2-1-1-1-3-1-4-2-1 0-2 0-3-1-1 0-3 0-4-1h-3c-1 0-2-1-3-1h-3-3c-1 0-2 0-3 1h-3c-1 0-1 0-2 1h-3c-1 1-2 1-2 1-1 1-2 1-3 2-1 0-2 1-2 1-1 1-2 1-2 2-1 0-2 1-3 2l-1 1c-1 1-2 2-2 3l-2 2c0 1-1 2-1 3l-2 2c0 1 0 2-1 3 0 1-1 2-1 3s-1 3-1 4 0 2-1 2v5c0 1-1 2-1 3v7c0 6 0 11 1 17 1 3 1 6 2 8 1 5 3 10 4 14 1 2 1 4 2 6 2 6 5 12 8 18 4 7 8 13 13 19 2 3 4 5 5 8 4 4 8 9 13 13 6 6 13 11 20 15 37 21 68 4 68-39z"/>
   <path class="fil6" d="m1774 9804c-26-15-49-16-66-6l-32 18h2c1-1 2-2 4-2 1-1 1-1 2-1 2-1 3-1 4-1 1-1 3-1 4-1s2 0 4-1h3 5c1 0 2 0 3 1h5c1 1 2 1 3 1 2 0 4 1 6 1 1 1 2 1 3 2 2 0 4 1 6 2 1 0 2 1 3 1 3 2 6 3 9 5 52 30 94 102 94 162 0 3 0 7-1 10v4c0 2-1 4-1 6 0 1-1 3-1 4-1 2-1 3-2 5 0 1 0 2-1 4 0 1-1 3-2 4 0 1-1 2-1 3-1 2-2 3-3 4 0 1-1 2-2 3s-1 3-2 4c-1 0-2 1-3 2l-3 3c-1 0-2 1-3 2-1 0-1 1-3 2l32-19c17-10 28-30 28-60 0-59-42-132-94-162z"/>
   <path class="fil0" d="m1742 10009c-7-4-14-9-20-15-5-4-9-9-13-13-1-3-3-5-5-8-5-6-9-12-13-19-3-6-6-12-8-18-1-2-1-4-2-6-1-4-3-9-4-14-1-2-1-5-2-8-1-6-1-11-1-17v-7c0-1 1-2 1-3v-5c1 0 1-1 1-2 0-2 1-3 1-4s1-2 1-3c1-1 1-2 1-3l2-2c0-1 1-2 1-3l2-2c0-1 1-2 2-2 0-1 1-2 2-2 0-1 1-2 2-2 0-1 1-1 2-2 0 0 1-1 2-1 1-1 2-1 3-2 0 0 1 0 2-1h3c1-1 1-1 2-1h3c1-1 2-1 3-1h3 3c1 0 2 1 3 1h3c1 1 3 1 4 1 1 1 2 1 3 1 1 1 3 1 4 2 1 0 2 1 2 1 3 1 5 2 7 3 38 22 68 75 68 118s-31 60-68 39zm-228-132c-5-3-10-6-14-9-13-11-25-26-34-42-3-5-6-10-9-16-2-6-4-11-6-17-1-3-2-6-2-8-2-9-3-17-3-25v-8c0-1 0-2 1-2v-5c0-1 1-2 1-3s1-3 1-4 1-2 1-2c0-1 1-3 1-4 1 0 1-1 2-2 0-1 1-2 1-3l2-2c0-1 1-2 2-2 0-1 1-1 1-2 1-1 2-1 2-2 1-1 2-1 2-1 1-1 2-2 3-2 1-1 2-1 2-1 1-1 2-1 3-1 1-1 2-1 3-1 0 0 1-1 2-1h3c1 0 2-1 3-1s2 0 3 1c1 0 2-1 3 0h3 2c7 2 14 4 21 9 19 11 36 29 48 50 12 22 20 46 20 67 0 43-31 61-68 39zm303 161c1-1 2-2 3-2 1-1 1-3 2-4s2-2 2-3c1-1 2-2 3-4 0-1 1-2 1-3 1-1 2-3 2-4 1-2 1-3 1-4 1-2 1-3 2-5 0-1 1-3 1-4 0-2 1-4 1-6v-4c1-3 1-7 1-10 0-60-42-132-94-162-3-2-6-3-9-5-1 0-2-1-3-1-2-1-4-2-6-2-1-1-2-1-3-2-2 0-4-1-6-1-1 0-2 0-3-1h-5c-1-1-2-1-3-1h-5-3c-2 1-3 1-4 1s-3 0-4 1c-1 0-2 0-4 1-1 0-1 0-2 1-2 0-3 1-4 2-7 3-13 8-18 16s-9 18-11 30l-42-24c-7-56-46-119-93-147-3-2-6-3-9-5-1 0-2-1-3-1-3-1-5-2-7-3-1 0-2 0-3-1-2 0-4-1-6-1-1 0-2 0-4-1h-4c-2-1-3 0-4 0-2-1-3-1-5-1-1 0-2 1-3 1h-4c-2 1-3 1-4 1-1 1-2 1-4 1-1 1-2 1-3 2-1 0-2 1-3 2-17 9-28 30-28 60 0 59 42 132 94 162 26 15 50 16 67 6 0-1 1-1 2-2s2-1 3-2l7-7c0-1 1-2 2-3 0-1 1-2 2-2 0-2 1-3 2-4 0-1 1-2 1-3 1-1 1-2 2-4 0-1 1-2 1-3s1-3 1-5c1-1 1-2 1-2 1-3 1-6 2-9l21 12 21 13c6 56 45 119 93 146 27 16 52 17 69 5 1-1 2-2 3-2l3-3z"/>
   <path class="fil31" d="m1582 9838c0-21-8-45-20-67-12-21-29-39-48-50-7-5-14-7-21-9h-2-3c-1-1-2 0-3 0-1-1-2-1-3-1s-2 1-3 1h-3c-1 0-2 1-3 1h1c-1 0-2 0-3 1-1 0-2 0-3 1 0 0-1 0-2 1-1 0-2 1-3 2 0 0-1 0-2 1 0 1-1 1-2 2 0 1-1 1-1 2-1 1-2 1-2 2l-2 2c0 1-1 2-2 3 0 1 0 2-1 2 0 1-1 3-1 4s-1 1-1 2-1 3-1 4-1 2-1 3 0 3-1 5v2 8c0 8 1 16 3 25 0 2 1 5 2 8 2 6 4 11 6 17 3 6 6 11 9 16 9 16 21 31 34 42 4 3 9 6 14 9 37 22 68 4 68-39z"/>
   <path class="fil3" d="m291 10296c-49-29-72-13-72 20 0 80 114 113 113 165 0 19-14 26-46 7-24-14-48-38-62-61l-10 18c15 25 42 51 70 68l3 2c49 27 72 12 72-20 0-80-114-112-114-165 0-19 14-26 46-8 17 10 35 26 51 47l9-19c-15-21-37-41-59-53v-1h-1z"/>
   <polygon class="fil3" points="524 10433 369 10343 369 10370 433 10407 432 10596 459 10612 460 10422 524 10460"/>
   <polygon class="fil3" points="686 10526 553 10450 553 10666 689 10744 689 10717 580 10654 580 10585 674 10639 674 10613 580 10558 580 10492 686 10553"/>
   <path class="fil3" d="m806 10596-73-43-1 216 27 16 1-65 46 26c49 29 78 17 79-30 0-46-30-92-79-120zm-46 97v-97l46 26c34 20 52 48 52 79s-18 38-53 18l-45-26z"/>
   <polygon class="fil3" points="1042 10732 973 10692 973 10719 1015 10743 1015 10932 1041 10948"/>
   <path class="fil3" d="m1546 8426c-48-28-71-13-71 20 0 80 114 113 113 165 0 19-14 26-46 7-24-14-48-38-62-61l-10 18c15 25 43 52 72 69 49 29 73 14 73-19 0-80-114-112-114-165 0-19 14-26 46-8 17 10 35 26 51 47l9-19c-15-21-37-41-59-53l-2-1z"/>
   <polygon class="fil3" points="1780 8563 1625 8473 1624 8500 1689 8537 1688 8726 1715 8742 1716 8552 1780 8590"/>
   <polygon class="fil3" points="1942 8656 1809 8580 1809 8796 1945 8874 1945 8848 1835 8784 1836 8715 1930 8769 1930 8743 1836 8688 1836 8622 1942 8683"/>
   <path class="fil3" d="m2062 8726-73-42-1 215 27 16v-65l47 26c49 29 78 17 78-30 1-46-29-92-78-120zm-46 97v-97l45 26c35 20 53 48 53 79-1 31-18 38-53 18l-45-26z"/>
   <path class="fil3" d="m2299 8860c-29-17-54-19-69-7l19 29c11-9 28-7 48 4 26 15 40 37 40 59 0 14-4 25-24 36l-77 41v21l135 77v-26l-96-56 57-30c26-14 31-30 32-50 0-37-26-75-65-98z"/>
    <path class="fil4" d="m2663 7996c-28-16-112-67-112-67-10-6-22-6-31-1l-3 2c-13 8-13 65 0 73l115 66c23 9 40-4 48-11 14-13 22-40-17-62z"/>
    <path class="fil32" d="m2690 8025c0 10-5 19-11 25-9 8-27 21-51 12l-117-68c2 4 4 7 6 9l115 66c23 9 40-4 48-11s14-20 10-33z"/>
    <path class="fil4" d="m2473 8075c-29-16-113-68-113-68-9-5-21-5-31 0l-2 2c-14 8-14 65 0 73l115 66c23 9 40-4 48-11 13-13 22-40-17-62z"/>
    <path class="fil32" d="m2500 8104c0 10-5 19-12 25-8 8-26 21-50 12l-117-68c1 4 3 7 6 9l115 66c23 9 40-4 48-11s14-20 10-33z"/>
    <path class="fil6" d="m2463 7272h-191c-3 0 45 736 45 741 6 48 48 51 48 51 22 0 47-3 53-51 0-5 48-741 45-741z"/>
    <path class="fil6" d="m2646 7198h-190c-3 0 45 735 45 740 6 49 48 51 48 51 21 0 47-2 53-51 0-5 47-740 44-740z"/>
    <path class="fil33" d="m2429 8055c-10 4-19 10-27 19-4 5 3 13 8 8 6-8 13-13 22-17 7-3 4-13-3-10z"/>
    <path class="fil33" d="m2450 8069c-11 5-20 11-28 20-4 5 3 12 8 7 6-7 13-13 22-17 7-2 4-12-2-10z"/>
    <path class="fil25" d="m2422 8033c-1-2-1-4-2-5-1-3-2-5-4-7-6-6-18-2-24 1-8 4-18 11-20 19-3 8 6 15 10 20 2 2 2 3 4 5 3 5 9 3 13 0 5-5 12-9 19-11 9-3 7-14 4-22z"/>
    <path class="fil33" d="m2620 7976c-11 4-20 10-28 19-4 5 3 13 8 8 6-8 14-13 23-17 6-2 3-13-3-10z"/>
    <path class="fil33" d="m2640 7990c-11 5-20 11-27 20-5 5 3 12 7 7 6-7 14-13 23-16 6-3 3-13-3-11z"/>
    <path class="fil25" d="m2613 7954c-1-2-2-4-3-5-1-3-2-5-4-7-6-6-17-2-24 1-7 4-17 11-20 19-2 9 6 15 11 21 1 1 2 3 3 4 4 5 9 3 13 0 6-5 12-9 19-11 10-3 8-14 5-22z"/>
    <path class="fil34" d="m2296 7280c-18-6-54-7-57 16 0 1-1 2-1 4-2 23-4 47 2 70 3 12 10 33 24 37 25 6 31-27 35-55 0 1 1 1 1 1 3 4 11 5 13-1 7-21 9-63-17-72z"/>
    <path class="fil4" d="m2666 6731c-6-105-120-168-212-115-44 25-80 46-90 52 0 0-11 5-25 14-54 31-90 88-94 151-7 104-21 342-18 440 1 30 22 55 51 60 22 4 41 0 53-3 9-3 18-3 27-2 177 29 251-45 300-137 1-1 1-1 1-2 11-2 21-7 25-19 4-7-8-249-18-439z"/>
    <path class="fil25" d="m2636 6817s16 386 22 374c1-1 1-1 1-2 11-2 21-7 25-19-30-10-46-345-48-353z"/>
    <path class="fil25" d="m2355 6854c-18 211-1 428-24 476 9-3 18-3 27-2 0-180 11-482-3-474z"/>
    <path class="fil10" d="m2725 6354-3 355c0 10-10 16-19 11l-367-220 389-146z"/>
    <path class="fil34" d="m2684 6450c0-126-74-257-200-257s-228 102-228 227c0 126 102 245 227 245v74c39 0 71-32 71-71v-13c83-27 130-105 130-205z"/>
    <path class="fil35" d="m2506 6735c1-36 2-71 3-107 1-31-6-73 9-101 29-59 115-74 161-115 1-1 2-2 3-2-14-112-85-217-198-217-126 0-228 102-228 227 0 126 102 245 227 245v74c8 0 16-2 23-4z"/>
    <path class="fil10" d="m2661 6244-46-26c-81-47-181-47-262 0-68 39-110 112-110 190v159c0 61 33 117 86 148l132 76c11 6 23-1 23-13l-2-211c0-50 27-96 71-119l172-92c0-46-24-89-64-112z"/>
    <path class="fil13" d="m2531 6414c-46 25-75 75-74 128l4 249c11 6 23-1 23-13l-2-211c0-50 27-96 71-119l172-92c0-13-2-25-5-37-45 17-128 61-189 95z"/>
    <path class="fil13" d="m2417 6252s77 27 134 83c0 0-44-78-134-83z"/>
    <path class="fil36" d="m2597 7116z"/>
    <path class="fil36" d="m2583 7114v1-1z"/>
    <path class="fil36" d="m2597 7114v-1 1z"/>
    <path class="fil37" d="m2597 7117v-1 1z"/>
    <polygon class="fil37" points="2583 7115 2583 7115"/>
    <path class="fil32" d="m2583 7115c0 1 0 2 2 3 3 2 8 2 10 0 1 0 2-1 2-1v-1l1-1-1-1v-1s-1-1-2-1c-3-2-7-2-10 0-1 0-2 1-2 1v1 1z"/>
    <polygon class="fil36" points="2638 7097 2638 7097 2764 7169"/>
    <polygon class="fil26" points="2638 7097 2638 7097 2559 7143 2685 7216 2764 7169"/>
    <path class="fil32" d="m2782 7177c-1 0-1 1-2 1l-80 47c-3 2-9 2-12 0l-147-85c-1-1-2-1-2-2v-1c-1 0-1 0-1-1v15c0 2 1 3 3 4l147 85c3 2 9 2 12 0l80-47c2-1 2-2 2-3v-15 1 1z"/>
    <polygon class="fil38" points="2782 7175"/>
    <path class="fil36" d="m2730 7194c1 0 2 1 2 1s-1-1-2-1z"/>
    <path class="fil36" d="m2727 7196h-1 1z"/>
    <polygon class="fil37" points="2726 7196"/>
    <path class="fil32" d="m2727 7195v1h-1c0 1 1 1 1 2 2 1 4 1 5 0 2-1 2-2 0-3 0 0-1-1-2-1s-2 1-3 1z"/>
    <path class="fil33" d="m2764 7169-126-72-79 46 126 73 79-47zm-32 26s-1-1-2-1-2 1-3 1v1h-1c0 1 1 1 1 2 2 1 4 1 5 0 2-1 2-2 0-3zm-149-82v1 1c0 1 0 2 2 3 3 2 8 2 10 0 1 0 2-1 2-1v-1l1-1-1-1v-1s-1-1-2-1c-3-2-7-2-10 0-1 0-2 1-2 1zm199 62v1 1c-1 0-1 1-2 1l-80 47c-3 2-9 2-12 0l-147-85c-1-1-2-1-2-2v-1c-1 0-1 0-1-1s1-2 3-3l80-47c3-2 8-2 12 0l147 85c2 1 2 3 2 4z"/>
    <path class="fil34" d="m2706 7104c-5-5-12-9-20-10-9-1-18 3-26 6-5 3-12 6-13 13 0 2 0 4 1 6 2 7 9 9 16 8 4-1 13-7 17-8 5-1 34 14 37 17 4 2-5-25-12-32z"/>
   <path class="fil39" d="m3485 5630-23 129c-2 7-5 12-9 15l45-27c5-2 8-7 9-14l24-129-46 26z"/>
   <polygon class="fil40" points="3417 5591 3462 5565 3531 5604 3485 5630"/>
   <path class="fil40" d="m3485 5630-23 129c-3 17-17 22-33 12l-6-4c-19-14-31-41-27-60l21-116 68 39z"/>
   <path class="fil39" d="m4029 6020-20-140-46 26 21 140c2 14-2 25-9 29l45-26c8-5 11-15 9-29z"/>
   <polygon class="fil40" points="3895 5867 3941 5841 4009 5880 3963 5906"/>
   <path class="fil40" d="m3963 5906 21 140c3 23-9 36-27 30l-6-3c-16-9-30-30-33-51l-23-155 68 39z"/>
   <polygon class="fil41" points="3485 5630 3531 5604 3941 5841 3895 5867"/>
   <polygon class="fil42" points="3462 5390 3507 5364 3579 5405 3533 5432"/>
   <polygon class="fil42" points="3462 5225 3508 5199 3507 5364 3462 5390"/>
   <polygon class="fil42" points="3558 5446 3604 5420 3675 5461 3630 5487"/>
   <polygon class="fil42" points="3397 5034 3442 5007 3473 5071 3427 5097"/>
   <polygon class="fil43" points="3462 5225 3508 5199 3579 5240 3534 5267"/>
   <polygon class="fil43" points="3534 5267 3579 5240 3579 5405 3533 5432"/>
   <polygon class="fil42" points="3655 5502 3700 5475 3772 5517 3727 5543"/>
   <polygon class="fil42" points="3559 5245 3604 5219 3604 5420 3558 5446"/>
   <polygon class="fil43" points="3631 5287 3676 5260 3675 5461 3630 5487"/>
   <polygon class="fil43" points="3559 5245 3604 5219 3676 5260 3631 5287"/>
   <polygon class="fil42" points="3752 5558 3797 5531 3869 5573 3823 5599"/>
   <polygon class="fil42" points="3656 5251 3701 5225 3700 5475 3655 5502"/>
   <polygon class="fil42" points="3848 5613 3894 5587 3966 5628 3920 5655"/>
   <polygon class="fil44" points="3727 5292 3773 5266 3772 5517 3727 5543"/>
   <polygon class="fil44" points="3656 5251 3701 5225 3773 5266 3727 5292"/>
   <polygon class="fil45" points="3727 5292 3727 5543 3655 5502 3656 5251"/>
   <polygon class="fil40" points="3280 5456 3326 5430 4146 5903 4101 5930"/>
   <polygon class="fil40" points="3283 4522 3328 4495 3326 5430 3280 5456"/>
   <polygon class="fil42" points="3753 5239 3798 5212 3797 5531 3752 5558"/>
   <polygon class="fil42" points="3427 5097 3473 5071 3683 5008 3637 5035"/>
   <polygon class="fil46" points="3824 5280 3870 5254 3869 5573 3823 5599"/>
   <polygon class="fil46" points="3753 5239 3798 5212 3870 5254 3824 5280"/>
   <polygon class="fil42" points="3637 5035 3683 5008 3823 5143 3777 5169"/>
   <polygon class="fil43" points="3628 4965 3674 4938 3813 5072 3768 5099"/>
   <polygon class="fil42" points="3850 5198 3895 5171 3894 5587 3848 5613"/>
   <polygon class="fil47" points="3921 5239 3967 5213 3966 5628 3920 5655"/>
   <polygon class="fil47" points="3850 5198 3895 5171 3967 5213 3921 5239"/>
   <polygon class="fil42" points="3909 5126 3954 5099 3963 5141 3918 5168"/>
   <polygon class="fil42" points="3777 5169 3823 5143 3954 5099 3909 5126"/>
   <polygon class="fil43" points="3768 5099 3813 5072 3923 5036 3878 5062"/>
   <polygon class="fil42" points="3849 5027 3894 5e3 3923 5036 3878 5062"/>
   <polygon class="fil43" points="3987 5063 4033 5036 3963 5141 3918 5168"/>
   <polygon class="fil16" points="3987 5063 3918 5168 3909 5126 3777 5169 3637 5035 3427 5097 3397 5034 3628 4965 3768 5099 3878 5062 3849 5027"/>
   <polygon class="fil43" points="3849 5027 3894 5e3 4033 5036 3987 5063"/>
   <path class="fil42" d="m3533 5432 1-165-72-42v165l71 42zm97 55 1-200-72-42-1 201 72 41zm97 56v-251l-71-41-1 251 72 41zm96 56 1-319-71-41-1 319 71 41zm97 56 1-416-71-41-2 415 72 42zm-2-487 69-105-138-36 29 35-110 37-140-134-231 69 30 63 210-62 140 134 132-43 9 42zm-635-646 820 473-2 935-821-474 3-934z"/>
   <polygon class="fil15" points="3534 5267 3533 5432 3462 5390 3462 5225"/>
   <polygon class="fil48" points="3631 5287 3630 5487 3558 5446 3559 5245"/>
   <polygon class="fil49" points="3824 5280 3823 5599 3752 5558 3753 5239"/>
   <polygon class="fil50" points="3921 5239 3920 5655 3848 5613 3850 5198"/>
   <path class="fil40" d="m3671 4720 45-26c0 14 10 31 22 38l-45 27c-12-7-22-25-22-39z"/>
   <path class="fil40" d="m3754 4734-45 26c-4 3-10 2-16-1l45-27c7 4 12 4 16 2z"/>
   <polygon class="fil51" points="3264 4455 3310 4429 3716 4664 3671 4690"/>
   <path class="fil40" d="m3754 4734-45 26c4-2 7-7 7-14l45-27c0 8-3 12-7 15z"/>
   <polygon class="fil42" points="3283 4522 3328 4495 4149 4969 4103 4995"/>
   <polygon class="fil40" points="3671 4690 3716 4664 3716 4694 3671 4720"/>
   <polygon class="fil40" points="3716 4716 3761 4690 3761 4719 3716 4746"/>
   <polygon class="fil52" points="3716 4630 3761 4604 3761 4690 3716 4716"/>
   <path class="fil53" d="m3693 4592c13 7 23 24 23 38v86 30c-1 14-11 20-23 13s-22-25-22-39v-30-86c0-14 10-19 22-12z"/>
   <path class="fil52" d="m3739 4565c-6-3-12-4-16-1l-45 26c4-2 9-2 15 2 13 7 23 24 23 38l45-26c0-14-10-32-22-39z"/>
   <polygon class="fil42" points="4103 4995 4149 4969 4146 5903 4101 5930"/>
   <polygon class="fil52" points="3716 4716 3761 4690 4167 4924 4122 4951"/>
   <path class="fil53" d="m3716 4716 406 235-3 1045-156-90-68-39-410-237-68-39-156-90 3-1046 407 235v30c0 14 10 32 22 39l-410-237-3 934 821 474 2-935-410-236c12 7 22 1 23-13v-30z"/>
   <polygon class="fil52" points="4122 4951 4167 4924 4165 5970 4119 5996"/>
</svg>
