<?xml version="1.0" encoding="UTF-8"?>
<!DOCTYPE svg PUBLIC "-//W3C//DTD SVG 1.1//EN" "http://www.w3.org/Graphics/SVG/1.1/DTD/svg11.dtd">
<!-- Creator: CorelDRAW X7 -->
<svg xmlns="http://www.w3.org/2000/svg" xml:space="preserve" width="297mm" height="187.017mm" version="1.1" style="shape-rendering:geometricPrecision; text-rendering:geometricPrecision; image-rendering:optimizeQuality; fill-rule:evenodd; clip-rule:evenodd"
viewBox="0 0 29700 18702"
 xmlns:xlink="http://www.w3.org/1999/xlink">
 <defs>
  <style type="text/css">
   <![CDATA[
    .fil6 {fill:none}
    .fil1 {fill:#FEFEFE}
    .fil0 {fill:white}
    .fil5 {fill:white;fill-opacity:0.039216}
    .fil3 {fill:white;fill-opacity:0.149020}
    .fil2 {fill:url(#id1);fill-opacity:0.149020}
    .fil4 {fill:url(#id2);fill-opacity:0.200000}
   ]]>
  </style>
   <clipPath id="id0">
    <path d="M0 0l29700 0 0 18702 -29700 0 0 -18702z"/>
   </clipPath>
  <linearGradient id="id1" gradientUnits="userSpaceOnUse" x1="19948.2" y1="13476.1" x2="19218.7" y2="18938.7">
   <stop offset="0" style="stop-opacity:1; stop-color:#E74792"/>
   <stop offset="1" style="stop-opacity:1; stop-color:#E74792"/>
  </linearGradient>
  <linearGradient id="id2" gradientUnits="userSpaceOnUse" x1="29824.3" y1="1570.52" x2="28624.3" y2="10564.7">
   <stop offset="0" style="stop-opacity:1; stop-color:#C93F81"/>
   <stop offset="1" style="stop-opacity:1; stop-color:#E74792"/>
  </linearGradient>
 </defs>
 <g id="Layer_x0020_1">
  <metadata id="CorelCorpID_0Corel-Layer"/>
  <polygon class="fil0" points="0,0 29700,0 29700,18702 0,18702 "/>
  <g style="clip-path:url(#id0)">
   <g id="_1962622014080">
    <g>
     <rect class="fil1" width="29700" height="18702"/>
     <path class="fil2" d="M22298 16207c0,-1505 -1215,-2726 -2715,-2726 -1499,0 -2714,1221 -2714,2726 0,1506 1215,2727 2714,2727 1500,0 2715,-1221 2715,-2727zm-1434 6c0,-715 -577,-1294 -1289,-1294 -711,0 -1288,579 -1288,1294 0,715 577,1294 1288,1294 712,0 1289,-579 1289,-1294z"/>
     <path class="fil3" d="M20864 16213c0,-715 -577,-1294 -1289,-1294 -711,0 -1288,579 -1288,1294 0,715 577,1294 1288,1294 712,0 1289,-579 1289,-1294z"/>
     <path class="fil4" d="M33691 6068c0,-2480 -2000,-4490 -4467,-4490 -2467,0 -4466,2010 -4466,4490 0,2479 1999,4489 4466,4489 2467,0 4467,-2010 4467,-4489zm-2344 11c0,-1179 -950,-2134 -2123,-2134 -1172,0 -2123,955 -2123,2134 0,1179 951,2135 2123,2135 1173,0 2123,-956 2123,-2135z"/>
     <path class="fil5" d="M31347 6079c0,-1179 -950,-2134 -2123,-2134 -1172,0 -2123,955 -2123,2134 0,1179 951,2135 2123,2135 1173,0 2123,-956 2123,-2135z"/>
    </g>
   </g>
  </g>
  <polygon class="fil6" points="0,0 29700,0 29700,18702 0,18702 "/>
 </g>
</svg>
