<?xml version="1.0" encoding="UTF-8"?>
<!DOCTYPE svg PUBLIC "-//W3C//DTD SVG 1.1//EN" "http://www.w3.org/Graphics/SVG/1.1/DTD/svg11.dtd">
<!-- Creator: CorelDRAW 2017 -->
<svg xmlns="http://www.w3.org/2000/svg" xml:space="preserve" width="50.1764mm" height="50.1764mm" version="1.1" style="shape-rendering:geometricPrecision; text-rendering:geometricPrecision; image-rendering:optimizeQuality; fill-rule:evenodd; clip-rule:evenodd"
viewBox="0 0 1911 1911"
 xmlns:xlink="http://www.w3.org/1999/xlink">
 <defs>
  <style type="text/css">
   <![CDATA[
    .str0 {stroke:#2DB49B;stroke-width:6.71844}
    .fil0 {fill:#44ACA6}
    .fil1 {fill:white}
   ]]>
  </style>
 </defs>
 <g id="Layer_x0020_1">
  <metadata id="CorelCorpID_0Corel-Layer"/>
  <g id="_2197610476048">
   <path class="fil0 str0" d="M956 3c526,0 952,426 952,952 0,526 -426,952 -952,952 -526,0 -952,-426 -952,-952 0,-526 426,-952 952,-952z"/>
   <path class="fil1" d="M1794 688c0,5 9,31 11,39 4,14 7,26 10,40 6,27 12,58 14,86 5,18 6,99 6,121 -1,73 -13,154 -33,223 -10,32 -20,65 -33,95 -7,19 -23,52 -33,70l-28 49c-3,5 -7,11 -9,15 -11,14 -18,29 -30,43l-30 40c-13,16 -34,40 -48,55 -3,3 -6,6 -9,8l-44 42c-162,142 -376,227 -612,220 -204,-7 -387,-83 -529,-199 -57,-47 -107,-100 -151,-160l-28 -40 -23 -38c-23,-39 -43,-81 -60,-124 -66,-175 -79,-365 -27,-555 23,-84 58,-159 99,-225 24,-38 49,-73 76,-105 3,-4 6,-8 9,-11 12,-13 51,-57 60,-61l8 -8c48,-42 72,-62 131,-99 171,-108 387,-154 596,-123 69,10 134,29 194,52 122,48 231,124 319,218 16,18 34,39 49,58 5,6 8,11 13,17 9,11 18,24 26,36 30,43 64,108 84,160l22 60zm-1658 749c1,7 32,52 37,59 13,20 66,88 86,107 8,8 15,16 23,25l37 35c4,4 9,8 13,11 33,27 44,36 81,63 33,24 84,53 122,72 297,143 641,127 920,-46 51,-32 68,-47 112,-81l51 -46c31,-30 64,-67 91,-102 29,-37 53,-75 77,-116 35,-61 65,-137 85,-205 11,-36 20,-81 25,-119 1,-10 5,-36 5,-44 0,-4 0,-2 1,-4l1 -8 0 -1c0,-4 1,-8 1,-11 0,-4 0,-7 1,-12 0,-1 0,-1 0,-3 0,-2 0,-1 1,-2l0 -10c0,-3 0,-6 0,-9 0,-1 0,-3 0,-4 0,-3 0,-2 1,-4l1 -20c-1,-3 -1,-20 0,-23 0,-4 1,-11 -1,-14 -1,3 0,1 -1,1l0 -23 0 -3c-1,-1 0,0 -1,-2 0,-1 0,-2 0,-4 0,-2 0,-5 0,-7l0 -2c-1,-2 0,1 -1,-2 0,-1 0,-2 0,-3 0,-2 0,-4 1,-6l0 -1c-3,-3 -3,-26 -3,-30 -1,-2 -3,-18 -3,-21 -2,-16 -8,-46 -11,-62 -1,-7 -17,-75 -20,-77 -1,-8 -13,-42 -16,-51 -3,-8 -6,-16 -9,-25 -15,-37 -31,-73 -51,-109 -1,-2 -2,-4 -3,-6 -4,-7 -8,-13 -12,-21 -2,-4 -4,-6 -6,-10 -2,-4 -4,-7 -7,-11l-23 -35c-18,-26 -51,-70 -73,-94 -2,-2 -3,-3 -4,-4 -13,-15 -46,-49 -59,-61l-3 -3c-2,-2 -3,-3 -4,-4l-13 -12c-2,-2 -3,-3 -4,-4l-37 -30c-6,-5 -12,-9 -19,-14 -7,-5 -13,-9 -19,-14 -7,-5 -13,-9 -20,-14 -20,-14 -41,-27 -62,-38 -4,-2 -7,-4 -10,-6l-44 -23c-4,-2 -7,-3 -11,-5 -4,-2 -7,-3 -11,-5 -13,-6 -33,-14 -47,-20 -5,-2 -8,-3 -13,-5l-50 -17c-19,-7 -57,-16 -79,-20l-71 -12 -53 -5c-4,0 -3,-1 -8,-1 -21,-1 -27,-2 -49,-2 -63,0 -95,1 -157,10 -74,10 -120,25 -188,47 -9,3 -16,6 -24,9 -26,10 -46,19 -70,31 -5,3 -18,10 -23,11 -2,3 1,2 -4,2 -2,2 -5,4 -9,5 -2,2 -4,3 -7,4l-2 1 -2 1c-2,2 -1,2 -5,3l-2 1c-1,2 0,1 -3,2l-2 1 -2 1c-1,2 0,1 -3,2l-2 1c-1,2 0,1 -3,2 -2,2 -1,2 -5,3l-2 1 -1 1 -2 1 -2 1 -1 1 -2 1c-1,2 0,1 -3,2 -1,2 0,1 -3,2l-2 1c-1,2 0,1 -3,2l-1 1 -2 1 -2 1 -1 1c-1,2 0,1 -3,2l-2 1 -1 1c-1,2 0,1 -3,2l-2 1 -1 1 -2 1 -1 1 -2 1 -1 1 -1 1 -2 1 -1 1 -2 1 -1 1 -2 1 -1 1 -1 1 -2 1 -1 1 -2 1 -1 1 -2 1 -1 1 -1 1 -2 1 -1 1 -1 1 -1 0 -1 1 -1 1 -1 1 -1 0 -1 1 -1 1c0,1 0,1 -1,1l-1 0c0,2 0,1 -1,1l-1 1 -1 1 -1 0 -1 1 -1 1 -1 1 -1 0 -1 1 -1 1c0,1 0,1 -1,1l-1 0c0,1 0,1 -1,1l-1 1 -1 1 -2 1 -1 1 -1 1c0,1 0,1 -1,1 -1,0 -1,1 -2,1l-1 1 -1 1 -1 1 -2 0c0,2 0,1 -1,1l-1 1c0,1 0,1 -1,1l-1 1c0,2 0,1 -1,1l-1 1c0,1 0,1 -1,1 -2,1 -1,1 -3,2l-1 1 -1 1 -1 1 -3 2 -1 1 -1 1 -1 1c-1,1 -2,2 -3,3l-1 1 -1 1c-2,1 -4,3 -6,4 0,2 0,1 -1,1 0,1 0,1 -1,1 -2,2 -2,2 -4,4 0,2 0,1 -1,1 -2,2 -10,10 -13,12 -20,17 -52,51 -70,71l-29 35c-4,5 -7,10 -11,15 -4,5 -7,9 -11,15 -4,5 -7,10 -11,15 -73,104 -127,223 -155,359 -37,184 -19,360 45,533 7,18 23,55 31,71 6,11 30,62 36,66z"/>
   <g>
    <path class="fil1" d="M607 1183c0,2 4,3 4,10 0,14 -10,46 -15,59 -3,8 -5,14 -8,22 -5,15 -9,35 -6,52 2,10 3,15 8,22 10,13 5,7 17,13 0,3 -1,3 -2,5 10,1 10,-3 19,-3 -2,2 -6,2 -8,4 4,0 18,-6 25,-8 9,-2 3,-6 16,-12l20 -14c4,-3 5,-5 9,-7 7,-4 3,-2 7,-8 0,0 0,0 0,0 2,0 3,-2 5,-4 0,0 0,0 1,0l15 -17c1,-3 4,-7 6,-8 0,17 3,28 14,35l17 7c6,2 14,3 21,2 5,-1 3,-2 9,-4 17,-5 15,-9 22,-13 6,-3 4,0 7,-5 4,-6 13,-12 19,-16 -3,0 -4,1 -6,3 -2,2 -3,2 -5,4 0,-1 0,1 0,-1 0,0 -1,-2 1,-4 4,-4 8,-7 12,-11 2,-2 3,-4 6,-5 -1,11 -3,24 -4,36 -2,13 -6,12 -18,23 -7,6 -6,4 -12,9 -5,3 -6,7 -10,11 -7,7 -14,12 -20,21 -5,8 -5,0 -10,9 -2,3 0,2 -3,6 -1,2 -3,3 -4,5 -4,6 -9,12 -14,17 -3,3 -11,13 -13,17 -2,5 -4,8 -7,13 -1,1 0,1 -1,2 -1,1 -1,1 -1,1 -2,2 -8,18 -11,23l-7 13c-7,11 -14,31 -16,44 -4,28 -7,26 -8,32 -6,34 7,69 51,67 5,0 13,-1 18,-2 5,-1 12,-2 15,-5 3,-3 9,-6 11,-9 2,-3 3,-3 5,-5 2,-1 3,-2 5,-4 -1,5 -2,4 -5,6l-6 4c0,0 -1,0 -1,0 7,4 21,-17 23,-21l10 -13c1,-3 2,-5 3,-8 3,-7 2,-2 5,-11 1,-4 0,-1 2,-3 2,-2 3,-8 6,-12l6 -12c6,-16 5,-29 12,-33 -1,3 -2,5 -3,8 -3,5 -2,10 -4,14 0,1 -1,3 -1,4l0 2c0,0 0,0 0,1 3,-5 7,-24 10,-31 17,-54 29,-109 34,-166 1,-6 2,-10 6,-14 3,-3 6,-4 9,-7l2 -2c2,-2 5,-2 8,-4 2,-1 4,-5 17,-12 -3,-1 -3,1 -5,-1 0,0 0,0 1,-1l2 -1c3,-2 6,-3 8,-6 1,-2 1,-1 2,-3 -4,1 -3,1 -5,4 -3,4 -10,6 -15,8 3,-7 9,-6 15,-10 5,-4 9,-7 16,-10 -1,4 -1,4 -4,6l4 -2c-1,33 -11,80 -2,111 5,15 10,17 21,24 3,2 5,4 9,6 5,2 19,0 25,-1 21,-3 13,-6 18,-11 2,-1 8,1 11,-5 3,-5 -3,4 1,-1 4,-5 31,-29 31,-35l0 -2c1,-4 16,-22 19,-28 4,-5 6,-9 10,-14 2,-3 3,-4 5,-7l6 -6c-1,19 -4,38 13,46 0,0 0,0 1,0l4 2c4,2 3,2 6,5 2,2 4,3 7,4 3,0 7,0 11,0 5,0 3,-1 8,-3 7,-3 9,-2 16,-6 15,-9 26,-18 37,-32 10,-13 8,-9 17,-18l11 -12c3,-4 25,-41 31,-47l11 -11c2,2 4,6 5,8 6,8 11,15 15,25 -3,4 -2,4 -7,7 -8,5 -14,11 -21,17 -5,5 -8,8 -13,13 -8,7 -15,19 -17,21 -7,6 -6,8 -11,14 -4,5 -6,11 -10,16 -2,3 -4,16 -9,29 0,0 1,1 2,1 0,5 1,7 1,11 1,7 3,11 6,16 1,2 0,4 3,7 2,2 13,7 16,7 30,6 47,-1 70,-15 5,-3 11,-4 13,-10 -5,1 -8,5 -13,7 2,-3 7,-6 11,-9 13,-10 6,-1 18,-19 1,-1 3,-5 4,-6 6,-4 -1,3 4,-1 2,-3 0,-1 1,-3 2,-6 1,-7 3,-12 3,-5 3,-10 5,-15 1,-5 3,-5 3,-12 0,0 0,0 1,1 0,0 0,0 1,1 0,0 0,0 1,0 2,2 0,1 1,1 3,-32 -2,-42 -13,-69 3,-2 6,-3 9,-6 3,-3 1,-2 4,-4 7,-5 16,-8 24,-11 6,-2 15,-5 20,-7 3,-1 2,-2 5,-3l16 -5c-3,-1 -3,2 -6,-1 4,-3 15,-6 21,-7 -1,10 -7,23 -8,35 -1,14 -3,25 -5,37 -1,9 0,20 -3,40 -1,3 -1,7 -1,10 1,4 1,3 0,9 0,1 1,21 4,17 0,0 0,0 0,0 0,0 0,0 0,0 6,-7 19,-2 26,-4 5,-1 1,0 4,-3 4,-4 3,-1 6,-7 2,1 2,1 4,2l4 -9c2,-3 4,-2 6,-6l7 -34c4,-29 -1,-24 17,-48 4,-6 3,-6 6,-11 2,-3 2,-2 5,-4 4,-3 7,-10 11,-13 6,-6 11,-10 16,-16 4,-5 22,-24 29,-18 6,6 -10,37 -12,45 -9,31 -23,66 -10,98 4,10 7,10 13,16 2,2 4,4 6,5 1,0 1,0 2,0 3,0 6,0 8,3 0,0 0,1 0,1 0,0 0,0 0,1 6,1 14,-1 19,-1l22 -11c-3,-2 1,2 -3,-1 2,-2 3,-2 5,-4 4,-3 3,-4 9,-5 2,-10 10,-11 15,-16 3,-3 3,-5 8,-9 5,-4 9,-8 12,-13l11 -13c1,-1 3,-5 7,-9 9,-10 15,-22 24,-33 9,-10 30,-51 27,-60 -9,3 0,8 -8,11l-1 -10c-8,3 -10,10 -15,17 -3,3 -3,6 -5,10 -2,4 -5,6 -6,9 -4,8 -7,13 -12,19 -7,9 -21,29 -27,36 -3,3 -6,4 -8,7 -5,5 -9,12 -14,16 -1,1 -1,1 -2,2l-6 6c-2,3 -4,7 -6,9l-9 7c-20,19 -24,-11 -22,-29 5,-42 33,-87 36,-118 2,-16 -1,-10 -5,-18 -2,-4 1,-2 -4,-4 2,-1 2,0 2,-2 -8,-1 0,-4 -9,-5 -4,-1 -8,-2 -12,-1 -19,2 -50,22 -61,37 -4,5 -10,9 -15,13 -4,5 -7,11 -12,15 -3,3 -4,2 -7,7 -4,5 -8,11 -13,15 0,-23 14,-60 17,-89 1,-8 2,-8 4,-14 1,-5 2,-9 3,-14 5,-29 17,-56 21,-85 2,-13 -1,-18 -12,-21 -15,-4 -12,-3 -26,3 -10,4 -12,9 -17,18 -2,3 -5,23 -7,29 -1,4 -3,8 -4,13l-17 70c-3,13 -7,48 -12,58 -20,0 -40,6 -58,12 -16,6 -36,16 -50,20 -5,-5 -9,-14 -13,-19 -5,-6 -8,-11 -13,-18 -6,-8 -7,-10 -11,-21 -8,-19 2,-25 16,-41 4,-5 19,-17 28,-11l4 3c6,5 3,19 1,26 -1,4 -4,7 -5,11 6,8 11,5 20,4 2,-8 5,-7 11,-11 6,-4 18,-32 2,-48 -10,-10 -19,-11 -33,-12 -24,0 -47,10 -66,22 -7,5 -7,5 -12,10 -14,15 -20,23 -14,47 3,12 10,19 15,30l-22 29c-5,5 -9,14 -16,22 -8,8 -10,14 -17,22l-23 27c-5,6 -8,7 -11,14 -29,7 -13,-51 -9,-65 7,-24 14,-46 20,-72 5,-24 11,-31 -4,-43 -5,-4 -21,-6 -28,-6 -13,-1 -12,-1 -20,25 -4,13 -10,19 -12,34 -1,10 -5,29 -7,39 -2,10 -3,9 -7,16 -23,34 -62,92 -92,115 -12,10 -20,12 -25,-6 -2,-8 -6,-35 0,-40 2,1 2,-2 1,4 -1,6 -3,8 -2,14 8,-10 0,-7 4,-15 2,-4 2,0 3,-7 0,-3 0,-7 -1,-8 -2,3 -1,7 -1,11 -2,-4 -3,-8 0,-12 6,-11 5,-25 9,-36 6,-18 6,-27 18,-43 9,-11 18,-23 27,-33 4,-5 9,-11 13,-17 4,-5 8,-12 11,-18 26,-44 28,-100 16,-152 -3,-12 -12,-36 -19,-40 -8,-4 -17,-4 -26,-2 -10,2 -8,4 -13,10 -1,2 -2,2 -3,4 -2,3 -2,8 -4,11 -2,3 -4,6 -6,9 -2,4 -5,15 -7,22 -24,70 -31,124 -48,193 -1,5 -4,22 -6,25 -1,2 -17,10 -19,11 -22,9 -25,21 -37,23 2,-14 7,-34 11,-46 5,-16 14,-32 4,-42 -3,-2 3,1 -1,0l-2 -2c-3,-3 -4,-3 -6,-5 -2,-3 -3,-4 -8,-4 -15,0 -7,2 -13,2 -10,0 -4,2 -10,7 0,0 0,0 -1,0 0,0 0,0 -1,0 -3,3 -7,19 -8,23 -1,10 -8,13 -13,20 -4,6 -12,11 -17,17l-17 16c-5,5 -32,27 -39,28 -2,-22 23,-67 32,-81 9,-14 41,-53 57,-55 5,1 6,11 11,13 7,3 9,7 17,4 16,-5 13,-19 5,-30 -7,-9 -14,-19 -27,-20 -20,-1 -1,-7 -38,2 -12,3 -31,22 -40,31 -19,19 -34,44 -48,68 -9,14 -5,20 -14,33 -7,10 -37,37 -49,45 -3,2 -4,2 -8,4 -2,1 -5,3 -7,4 -45,27 -15,-49 -8,-65 5,-12 8,-23 12,-35 3,-7 12,-27 10,-36l1 -1c2,-4 2,-18 1,-25 -1,-6 0,-1 -3,-5 -4,-5 2,0 -6,-9 -3,-4 -2,-5 -8,-6 -9,-2 -6,-2 -17,-1 -14,1 -35,16 -46,25 -3,2 -5,3 -8,5 -3,2 -4,5 -7,8 -7,7 -16,12 -21,22l-1 -4c0,-12 12,-49 5,-57 -5,-6 -15,-11 -26,-10 -1,0 -11,4 -13,5 -4,2 -7,4 -10,8 -14,20 -7,20 -11,33l-5 21c-5,19 -6,41 -11,59 -5,16 -3,9 -4,23 -1,7 -3,15 -4,22 -1,2 -1,5 -2,7l-1 3c0,4 0,13 -2,17 -2,6 -18,22 -22,29 -3,4 -18,19 -23,21 -6,3 -11,5 -16,10 -10,10 -34,23 -49,21 -7,-10 -5,-21 -7,-24 -5,-8 2,4 -2,-2l-5 -17c-1,2 -1,4 -1,6 0,-7 0,-11 -1,-19l-1 0c0,0 0,0 0,0 -1,0 0,2 0,0l-3 -77c-1,-12 7,-67 11,-75 2,-3 19,-4 22,-5 19,-1 27,-6 44,-8 9,-1 14,-4 21,-5l-2 0c0,0 -1,0 -1,0 -2,0 0,1 -3,0 6,-3 9,0 14,-5 4,1 -1,1 3,1 2,-3 0,0 3,-2 1,-1 1,0 2,-1 0,0 1,0 1,0 0,0 0,0 1,-1 -5,0 -9,3 -12,-1 2,-2 7,-2 11,-4l-14 0c4,-2 15,-4 18,-6 0,0 0,0 1,0 7,-6 8,-3 16,-6 -2,-2 -5,-2 -7,-3 -7,-4 3,-2 -18,-8 -5,-2 -7,-4 -12,-2l-8 2c-40,0 -38,5 -69,10 0,-4 1,-8 1,-13 1,-17 -3,-4 3,-29 3,-12 6,-25 10,-37 9,-32 22,-56 32,-86 3,-11 1,-8 10,-13 13,-7 15,-11 32,-15 59,-16 56,2 81,-6 0,-1 2,0 -1,-3 4,0 3,0 5,-2 -1,-2 -4,-2 -4,-4 0,0 0,0 0,-1 8,-5 3,0 6,-7l-6 -1c1,-8 -4,-7 -11,-8 -18,-4 -6,-2 -9,-5 0,0 -14,-4 -15,-4 -4,-1 -10,1 -13,-2 -6,1 -3,2 -7,2 -3,0 -2,-1 -6,-1l-41 4 -42 11c-5,2 0,1 -4,3 -2,-1 -6,-4 -9,-5 -7,-2 -7,0 -8,5 -7,2 -7,4 -14,3 0,13 0,15 -6,16 -10,3 -6,1 -7,3 -1,1 0,0 -1,2 -3,4 -5,1 -8,4l-5 6c3,7 4,3 8,8 4,5 0,3 7,6l2 1c-10,50 -29,93 -41,142 -5,21 -11,68 -14,77 -2,7 -5,28 -4,37l-1 25c2,8 0,0 0,5 -1,13 2,14 2,18 0,4 -2,4 -1,16l2 38c2,4 1,6 2,10 1,6 3,5 5,9 2,5 -2,4 0,10 1,3 2,7 3,10 4,15 9,26 17,36 4,5 23,19 30,23 5,3 14,6 21,6 4,0 6,-1 12,0 16,3 8,2 18,-3l27 -13c3,-1 -1,1 2,0 2,-1 0,0 1,-1 4,-3 3,-1 10,-3 2,-1 5,-2 7,-3 1,-11 3,-4 9,-13 2,-3 7,-4 11,-8 -5,-3 -1,-2 -4,0 -3,2 -1,1 -5,2 5,-7 11,-10 13,-12 1,-1 4,-5 5,-7l26 -32c32,-40 37,-43 48,-93 2,-11 2,-21 9,-26 7,-5 10,-10 18,-18l11 -12c9,-10 9,-6 14,-10 5,-4 6,-9 16,-8zm-152 202c-5,0 -2,-2 -6,5 -4,-1 -2,-3 -6,1 -4,3 -4,2 -4,8 -7,1 -5,3 -10,5 -15,7 -1,3 -10,6l1 1c5,3 4,2 9,0 3,-1 3,0 6,-2 0,0 2,-1 2,-2 0,0 0,0 1,0l2 -1c5,-5 10,-11 17,-14 -1,-3 -2,-1 -3,-4 7,-9 6,-7 3,-9l-1 5zm-124 -75c0,16 1,27 4,43 1,5 2,10 5,12 0,-4 -1,-10 -1,-14 0,-4 -2,-7 -3,-12 0,-4 1,-7 1,-13 0,-5 0,-9 -1,-14 0,1 -1,3 -1,6 0,1 0,4 0,5l-1 4 -1 -4c0,-1 0,-3 -1,-4 -2,-15 0,-23 -3,-46 -1,-7 4,-9 2,-15 -1,-3 1,0 -1,-2 -3,7 0,42 0,53zm894 89c2,-2 0,0 1,-2 1,-3 -1,0 0,-2 4,6 1,6 8,11 9,7 19,9 29,4 4,-2 7,-6 10,-9 8,-7 20,-24 23,-35 1,-6 3,-10 3,-17l2 -1c1,-4 1,-12 1,-15l-7 -42c-18,8 -48,48 -53,52 -4,3 -4,2 -6,6 -4,8 -7,11 -8,16 -1,4 -1,5 -3,9 -3,6 1,5 -2,9 -2,2 -5,2 -1,8 2,3 1,0 2,3 0,0 0,3 1,5zm-416 -41c-3,1 -3,1 -5,6 3,-1 2,-1 5,-3 2,-2 2,-1 2,-5 2,4 1,2 2,2 2,-1 4,-2 5,-4 4,-6 2,-1 9,-12l1 -4c-10,11 -2,3 -11,9 -3,2 -3,3 -6,6 -6,6 -3,3 -2,6zm-8 19c0,0 0,-1 0,-2 -1,-2 0,-1 -1,-2 -2,5 0,3 -1,6 -2,0 -2,0 -3,0 0,0 0,0 -1,0 0,0 0,0 -1,0l-1 -1c0,5 3,7 -3,8 3,1 5,-1 0,4 -2,2 -3,3 -8,4 1,-4 1,-2 2,-5 -4,4 -8,8 -11,13l3 -1c-1,5 0,3 1,3l1 0c-5,8 -13,15 -18,25 -2,4 -3,6 -7,8l-3 -4c-1,4 0,8 -2,14l-1 -4c-1,2 -3,3 -4,5 -4,4 -9,10 -10,17 6,-3 1,-4 9,-13 3,-4 -1,-2 4,-4 -1,4 -5,8 -7,12 -4,7 -6,12 -11,19 -6,8 0,3 -5,13 -1,3 0,4 -1,8l-1 -4c-1,2 -1,5 -2,7 -1,7 0,-1 1,4 -1,4 -3,10 -3,13 -1,5 1,6 -2,12 -1,-1 -2,2 -1,-5 1,-5 5,-8 4,-17 -1,3 -2,5 -3,7 -1,2 -1,2 -1,4 -1,4 -2,2 -2,4 0,6 -2,5 -2,13l2 -5c1,7 -6,9 -3,26 5,0 -1,-1 3,-1 1,3 1,10 1,15 0,8 2,10 3,17 1,-5 -1,-1 3,-3 1,4 4,12 9,14 8,3 19,-9 22,-12 7,-11 4,-1 16,-19 6,-10 10,-20 14,-32 5,-13 10,-19 13,-34 3,-12 9,-24 11,-35 3,-12 6,-29 7,-40 1,-7 1,-3 3,-8 5,-12 5,-36 8,-50 5,-20 3,-18 3,-18l-1 -2c-1,1 -5,5 -6,7 -5,7 -5,8 -13,12 -7,4 -5,3 -5,7zm202 -160c4,-4 22,-31 26,-37 13,-20 30,-71 33,-95l1 -30c-2,-24 -13,-38 -20,-7 -1,4 -2,7 -3,11 -1,4 -1,9 -2,13 -5,15 -7,32 -11,48 -2,9 -5,27 -9,35 -3,6 -2,6 -3,12 -2,16 -9,34 -11,49z"/>
    <path class="fil1" d="M835 525c-4,5 -28,92 -32,95 -4,2 -19,3 -25,4 -8,2 -17,4 -24,6 -5,2 -18,5 -23,7 -5,3 -3,5 -7,8 -4,3 -5,3 -7,8 -8,22 -5,20 6,30 6,5 3,2 10,6 6,3 5,8 24,4 8,-2 17,-4 26,-5 -2,8 -30,95 -35,110 -5,18 -14,41 -9,60 5,22 7,15 16,20 11,7 17,-3 19,-4 3,-1 4,0 8,-1 8,-3 12,-14 14,-22 4,-13 4,4 16,-20 4,-8 7,-18 12,-25 2,-3 4,-9 6,-12 9,-23 5,4 19,-35 3,-9 6,-18 9,-27 3,-9 6,-19 9,-28 1,-3 7,-25 10,-27 4,-2 49,-3 55,-2l3 71c1,18 5,87 9,104 2,9 5,23 7,30 2,7 12,16 18,20 5,3 9,3 14,5 9,3 9,-1 14,0 18,4 18,-2 26,-9 7,-7 2,-4 10,-8 4,-2 7,-6 8,-11 3,-10 2,-24 -1,-32 -2,-6 -4,-23 -6,-32 -6,-28 -6,-76 -5,-107 0,-12 0,-25 0,-37 15,-6 30,-27 17,-42 -5,-5 -8,-6 -16,-7 0,-12 3,-98 6,-103 -3,-18 16,-97 19,-124 2,-12 9,-80 4,-87 -3,-4 -3,-1 -6,-7 -7,-14 -9,-11 -19,-16 -7,-3 -9,-8 -13,-11 -3,-1 -6,-2 -10,-3 -6,-1 -4,0 -9,-3 -7,-4 -29,4 -37,7 -7,2 -14,13 -18,18 -2,3 -2,6 -4,8 -1,2 -4,3 -6,7 -2,2 -3,4 -5,7 -28,41 -53,95 -71,142 -6,14 -22,57 -25,70zm-32 292c1,-1 1,0 3,-3 2,-4 0,-3 -1,-4 -1,0 -2,-2 -3,3 -1,4 -1,2 1,4zm189 -537c3,2 17,6 22,7 -2,-7 -5,-3 -20,-9l-2 2zm-259 375c2,8 9,21 12,27l8 -1c-1,-3 -13,-28 -13,-29l-6 3zm18 174c4,4 25,16 31,18 2,-2 2,-4 3,-7l-31 -19c-2,2 -2,3 -2,7zm17 -190c2,12 12,26 16,35l8 -1c-5,-11 -15,-22 -17,-36l-7 1zm-7 153c5,5 26,19 33,21 2,-3 2,-3 2,-7 -6,-4 -11,-7 -17,-10l-16 -11 -2 7zm10 -31c4,6 34,26 45,30l3 -7c-23,-11 -41,-27 -45,-29l-2 6zm10 -31c9,7 34,29 46,32l3 -6 -24 -15c-9,-6 -15,-13 -22,-18l-3 7zm60 -5l2 -6c-5,-5 -20,-11 -35,-28 -3,-4 -7,-8 -10,-11 -6,9 1,13 15,26 4,4 22,17 29,19zm34 -277c43,-7 21,-6 66,-3l3 -7c-21,-3 -36,-4 -57,0 -9,2 -10,1 -12,10zm74 356l0 7c25,-1 46,-13 65,-20l0 -8c-3,1 -11,5 -15,6 -11,5 -21,8 -32,11 -5,1 -13,2 -18,4zm-56 -399c12,0 23,-1 36,0 11,1 20,3 31,5l4 -6c-10,-7 -53,-8 -67,-6l-4 7zm-28 68c38,-14 31,-8 66,-10 2,-2 3,-4 3,-7 -14,-2 -27,-2 -41,1 -5,1 -22,4 -25,8 -1,1 -3,6 -3,8zm86 360l1 6c12,2 60,-14 68,-20l-1 -6c-3,-1 -12,4 -15,5 -6,2 -11,4 -16,6 -6,2 -11,3 -17,5 -6,1 -13,2 -18,4zm8 35l1 7c10,3 58,-14 67,-18l0 -7c-7,1 -23,8 -32,11 -11,3 -24,7 -35,8zm8 -457c30,6 60,30 64,31l1 -8c-10,-9 -46,-29 -63,-31l-1 7zm-20 361l0 7c17,-2 40,-10 55,-18 13,-6 11,-5 11,-14 -3,1 -18,10 -30,15 -11,5 -23,7 -36,10zm12 -323c19,5 35,15 50,27 5,4 9,9 13,12 2,-7 4,-8 -8,-17 -13,-10 -38,-27 -55,-29l-1 7zm-111 71c15,-16 37,-29 70,-29 2,-2 2,-4 3,-7 -25,-2 -45,5 -64,18 -4,2 -5,3 -6,7 -1,3 -3,7 -3,10zm3 172l2 -7c-6,-4 -10,-7 -15,-11 -26,-23 -24,-31 -34,-44l-7 1c4,19 39,57 54,60zm93 40l0 7c15,0 44,-15 57,-24 12,-8 11,-7 11,-17l-31 20c-14,7 -22,9 -37,13zm-82 -67c4,-2 -1,-1 9,-3 -9,-8 -16,-7 -31,-27 -10,-13 -13,-23 -17,-42 -3,11 -6,11 -2,22 9,24 21,36 41,50zm93 -197c14,5 26,13 36,20 14,11 22,26 27,30 1,-11 2,-11 -7,-21 -12,-13 -38,-34 -55,-37l-1 7zm-6 -160c46,4 90,28 94,28l0 -7c-21,-12 -62,-25 -91,-28l-3 7zm-6 390l0 7c12,-1 33,-12 41,-17 8,-5 17,-13 24,-20 4,-4 4,-4 4,-11 8,-2 9,-4 13,-11 2,-3 7,-12 7,-16l-6 -2c-1,2 -8,15 -14,24 -15,22 -41,39 -68,46zm-19 -356c75,4 109,33 116,34l1 -7c-17,-15 -86,-36 -112,-34l-4 7zm-16 29c39,0 67,6 100,22 10,5 17,10 26,15 0,0 0,-1 0,-1 0,0 0,-1 0,-1l1 -6c-21,-19 -93,-40 -125,-36l-3 7zm43 127c28,11 56,46 53,89 -3,40 -31,71 -63,80l0 7c20,-4 38,-20 48,-31 11,-13 21,-33 23,-57 2,-34 -13,-63 -36,-83 -3,-3 -19,-14 -24,-14l-1 7zm-3 27l-1 8c10,10 20,18 24,38 6,33 -18,66 -53,69 -10,1 -19,-1 -27,-4 -15,-6 -12,-11 -22,-10 1,-7 -4,-9 -7,-15 -3,-5 -5,-10 -6,-16 -7,-30 10,-60 38,-69 10,-3 11,0 13,-10 -31,2 -57,28 -60,59 -7,76 97,101 126,34 10,-22 7,-51 -9,-69 -3,-4 -11,-12 -17,-14zm-61 86c14,0 30,-2 45,-2 2,-24 1,-50 3,-74 1,-12 2,-23 3,-35 1,-11 3,-24 4,-34 -8,11 -52,133 -54,145z"/>
    <path class="fil1" d="M633 525c-3,9 -14,80 -16,95 -2,17 -3,33 -6,49 -1,4 -2,7 -1,12 1,7 0,6 0,13 -1,10 1,14 -1,26 -1,6 -8,10 -4,20 2,6 3,2 3,10 2,26 -3,92 14,112 3,4 5,3 7,6 2,3 2,8 4,11 2,5 12,10 19,7 10,-5 4,-1 11,-3 4,-1 6,-4 7,-7 2,-4 4,-4 7,-7 13,-14 9,-20 11,-31 1,-5 0,-9 1,-12 6,-18 2,-56 7,-63 5,-8 8,-24 4,-33 -2,-5 -1,-8 -1,-14 1,-8 1,-17 3,-25 2,-15 2,-6 3,-25 0,-8 2,-17 3,-25 0,-6 1,-7 2,-12 1,-4 0,-18 2,-25 5,-13 2,-21 7,-35 1,-3 3,-6 4,-10 1,-5 0,-8 2,-13l5 -24c-1,-8 16,-59 18,-73 2,-9 5,-8 7,-16 2,-6 3,-12 5,-18 5,-19 4,-23 0,-41 16,-3 26,-6 43,-5 18,1 30,0 45,-5 4,-1 7,-1 11,-1 6,-1 4,-2 7,-6 5,-6 22,-1 23,-27 1,-20 -14,-16 -21,-18 -13,-3 -16,-4 -31,-6 -17,-2 -33,-2 -49,-1 -32,2 -56,8 -86,15 -27,6 -52,15 -80,20 -7,1 -14,3 -21,3 -12,1 -8,-6 -18,-6 -4,0 -7,1 -10,2 -5,1 -5,-1 -11,-1 -10,0 -10,7 -17,10 -5,2 -12,6 -14,11 -2,6 -2,16 1,21 3,8 5,8 13,12 7,3 10,5 19,7 26,6 55,4 82,1 5,-1 7,0 12,0 -1,5 -3,11 -3,16 -1,7 0,9 -1,17 -2,10 -6,19 -8,29 -2,10 -4,20 -7,30 -2,10 -6,21 -7,30zm40 283l4 3c1,-8 1,-11 -4,-14l0 11zm-6 -9c0,-4 1,-9 -1,-12l-3 -3c-1,7 -2,11 3,14zm19 -111l1 -3c0,8 -3,11 2,16 1,-12 2,-11 -1,-19 0,-1 -1,-2 -1,-3 -1,-2 -1,-1 -2,-3l0 11zm132 -331l22 -2c7,-2 0,-1 5,-3 0,0 11,1 14,-2l-6 -1c4,-1 4,-2 6,-5 -10,2 -34,9 -41,14zm-155 436c1,-14 -2,-13 -8,-21 -4,-6 -8,-12 -12,-18l-20 -38c-2,13 -1,14 4,24 7,13 27,47 36,54zm-2 -405c13,0 23,-17 37,-30l27 -23c3,-2 8,-5 10,-8 -19,1 -20,7 -33,17 -4,3 -6,5 -9,8l-24 25c-2,3 -6,7 -7,10zm19 366c3,-9 0,-10 -4,-17 -4,-6 -7,-11 -9,-17 -20,-41 -29,-72 -32,-121 -3,6 -3,15 -4,22 -1,9 0,14 2,23 6,34 24,79 44,107 3,4 1,2 4,3zm18 -123c3,-10 2,-36 3,-48 0,-16 3,-31 6,-46 9,-35 25,-54 27,-76 -6,5 -16,24 -20,34 -12,26 -20,56 -21,86 0,10 0,44 5,50zm-39 -157c13,-30 35,-62 59,-85 4,-4 7,-6 11,-10 11,-11 34,-27 48,-35 15,-9 26,-14 42,-20l15 -6c0,0 0,0 1,0 -17,-2 -21,0 -34,6 -10,4 -19,9 -27,14 -9,5 -17,11 -25,16 -33,23 -88,78 -89,120zm25 213c0,-5 -1,-5 1,-11 1,-4 0,-5 -1,-9 -2,-6 -4,-13 -5,-19 -19,-81 2,-159 55,-221 4,-5 7,-7 12,-12 6,-7 7,-4 8,-17 -13,8 -36,36 -47,52 -45,67 -55,157 -25,232l3 4z"/>
    <path class="fil1" d="M1105 525c-2,8 -4,18 -5,26 0,3 -2,12 -3,14 -1,2 -7,4 -10,7 -1,2 -4,7 -5,10 -5,7 -10,13 -5,23 2,5 4,4 9,7 0,6 -3,13 -4,19 -1,7 -2,14 -3,20 -6,47 -16,101 -14,147 0,12 4,11 5,18 0,3 1,9 1,11 0,3 -6,8 -2,18 5,13 -4,7 14,22 6,6 4,8 11,12 4,2 18,20 28,0 18,-3 20,3 26,-12 2,-6 7,-3 9,-11 2,-8 3,-36 -1,-43 -2,-4 -2,-3 0,-7 2,-4 3,-11 4,-15 2,-7 -1,-11 -3,-16 8,-14 3,-27 8,-42 2,-7 2,-13 3,-21 0,-5 0,-8 0,-12 1,-9 5,-18 5,-32 0,-8 2,-14 3,-21 2,-10 5,-32 8,-41 32,-8 33,-11 67,-12 9,0 17,3 23,-4 3,-4 1,-3 7,-6 15,-8 14,-13 10,-25 -3,-11 1,-11 -9,-18 -5,-3 -13,-6 -19,-7 -19,-5 -20,0 -35,0 -12,0 -22,4 -33,4l3 -10c-2,-3 0,-2 -4,-2l-35 0c7,16 9,57 9,77 -1,20 -8,55 -14,72 -7,21 -18,41 -29,57 -8,12 -30,40 -40,46 -1,-12 0,-9 6,-16 11,-11 20,-22 29,-36 25,-38 40,-83 41,-131 1,-36 -4,-44 -10,-75l0 5c-8,0 -15,0 -22,1 5,7 9,47 10,58 1,38 -8,76 -25,110 -5,10 -19,33 -27,40 1,-14 3,-15 9,-24 25,-36 37,-86 35,-130 -1,-23 -6,-36 -10,-56 -2,2 -3,2 -7,2 -2,0 -4,0 -7,0l-1 -5c-1,1 0,-1 -1,2 -1,2 0,0 0,3zm34 293l0 8c2,0 0,1 2,-1 0,0 0,0 0,0 1,-1 1,1 3,-8l-3 -2 -3 3zm-59 -77c5,-3 5,-8 5,-16 -2,1 -1,0 -3,2 -1,1 -1,2 -1,4 -1,3 -1,7 -1,10zm154 -160l7 0c1,-7 -1,-28 -3,-35l-7 0 3 35zm-36 7l7 -1c1,-13 -2,-26 -3,-38l-7 1 3 38zm-101 264c4,1 3,1 5,4l1 1c2,-2 5,-4 7,-6 7,-6 6,-2 6,-7 4,1 4,0 7,-3l12 -11c1,-2 1,0 1,-4 0,0 0,-2 0,-2l-1 -3c-6,5 -12,11 -18,16l-19 15zm-9 -30c16,-9 37,-32 50,-47 5,-6 7,-4 6,-18 -3,3 -4,5 -7,8l-22 24c-3,3 -4,4 -7,7l-17 14c-5,4 -4,4 -3,12zm13 -245c0,20 0,32 -4,51 -3,12 -9,33 -8,46 1,-5 2,-3 3,-10 1,-10 5,-2 12,-33 4,-18 5,-36 4,-56l-7 1z"/>
    <path class="fil1" d="M1107 520l1 5c2,0 4,0 7,0 5,0 5,0 7,-2 -2,-7 -3,-12 0,-18 3,4 7,15 8,21 7,-1 14,-1 22,-1l0 -5c-6,-18 -10,-29 -19,-45 -3,-6 -5,-9 -1,-16 8,7 26,51 29,66l35 0c4,0 3,-1 4,2 0,-9 15,-66 18,-82 3,-15 9,-51 8,-67 -1,-8 -6,-13 -8,-17 2,-1 5,-2 7,-2 3,0 4,1 8,1 1,0 26,-10 46,-12 24,-2 15,-2 35,-1 8,0 9,-4 15,-4 9,0 17,5 23,-5 3,-5 1,-2 5,-5 6,-4 4,-6 7,-12 2,-5 5,-6 3,-14 -4,-12 -5,-18 -21,-19 -5,0 -9,-3 -17,-4 -5,-1 -11,-2 -17,-2 -7,0 -15,1 -19,1 -13,-2 -22,2 -35,2 -21,1 -74,17 -94,24l-41 16c-5,3 -5,8 -10,10 -6,4 -7,2 -10,9 -9,28 16,30 22,34 -1,17 1,10 1,17 0,6 -2,10 -1,18 1,14 -2,24 -5,37 -2,10 -15,63 -14,69zm81 -5c6,-11 1,-22 -4,-32 -8,-20 -36,-72 -47,-78 -1,14 6,18 12,27 30,45 30,65 39,82zm-66 -167c5,2 17,15 21,19l5 -2c0,4 -1,3 -2,6 15,13 41,51 50,69 2,3 4,8 6,11 6,-10 -3,-22 -10,-33 -12,-20 -27,-37 -42,-54 -4,-4 -8,-8 -12,-12 -4,-3 -8,-10 -14,-9 -1,2 -2,3 -3,5z"/>
    <path class="fil1" d="M1170 1041c-25,3 -46,26 -43,55 3,25 26,46 55,42 25,-3 46,-26 42,-55 -3,-25 -26,-46 -54,-42zm4 51c8,0 39,1 44,-1l0 -3c0,0 -1,-1 -1,0l-3 -1c-1,0 -4,0 -5,0l-31 0c0,-7 0,-14 0,-21l0 -15c-1,-7 1,-3 -2,-4 -3,2 -2,-3 -2,4l1 41z"/>
   </g>
  </g>
 </g>
</svg>
