<?xml version="1.0" encoding="UTF-8" standalone="no"?>
<svg
   xmlns:dc="http://purl.org/dc/elements/1.1/"
   xmlns:cc="http://creativecommons.org/ns#"
   xmlns:rdf="http://www.w3.org/1999/02/22-rdf-syntax-ns#"
   xmlns:svg="http://www.w3.org/2000/svg"
   xmlns="http://www.w3.org/2000/svg"
   xmlns:sodipodi="http://sodipodi.sourceforge.net/DTD/sodipodi-0.dtd"
   xmlns:inkscape="http://www.inkscape.org/namespaces/inkscape"
   width="8.4666662mm"
   height="8.4666662mm"
   viewBox="0 0 8.4666662 8.4666662"
   version="1.1"
   id="svg8"
   inkscape:version="1.0 (4035a4fb49, 2020-05-01)"
   sodipodi:docname="tiktok.svg">
  <defs
     id="defs2">
    <style
       id="style10"
       type="text/css"><![CDATA[
    .fil1 {fill:#FEFEFE}
    .fil0 {fill:#D82F83}
   ]]></style>
  </defs>
  <sodipodi:namedview
     id="base"
     pagecolor="#ffffff"
     bordercolor="#666666"
     borderopacity="1.0"
     inkscape:pageopacity="0.0"
     inkscape:pageshadow="2"
     inkscape:zoom="0.35"
     inkscape:cx="-348.47096"
     inkscape:cy="-33.612691"
     inkscape:document-units="mm"
     inkscape:current-layer="layer1"
     inkscape:document-rotation="0"
     showgrid="false"
     inkscape:window-width="1366"
     inkscape:window-height="705"
     inkscape:window-x="-8"
     inkscape:window-y="-8"
     inkscape:window-maximized="1" />
  <metadata
     id="metadata5">
    <rdf:RDF>
      <cc:Work
         rdf:about="">
        <dc:format>image/svg+xml</dc:format>
        <dc:type
           rdf:resource="http://purl.org/dc/dcmitype/StillImage" />
        <dc:title></dc:title>
      </cc:Work>
    </rdf:RDF>
  </metadata>
  <g
     transform="translate(-100.76667,-144.26667)"
     inkscape:label="Layer 1"
     inkscape:groupmode="layer"
     id="layer1">
    <g
       id="g150"
       transform="translate(-13.102577,-6.3589783)">
      <circle
         r="4.2333331"
         cy="154.85898"
         cx="118.10258"
         id="path32"
         style="fill:#000000;stroke-width:1.93251;stroke-linejoin:round" />
      <path
         style="fill:#ffffff;stroke-width:0.010869"
         id="path68"
         d="m 120.54182,153.4721 c -0.3176,0 -0.61063,-0.10522 -0.84594,-0.28271 -0.26988,-0.20346 -0.46378,-0.50192 -0.53225,-0.84594 -0.017,-0.0849 -0.0262,-0.1727 -0.0269,-0.26259 h -0.90724 v 2.47901 l -0.002,1.35786 c 0,0.36302 -0.23639,0.67084 -0.56409,0.7791 -0.0951,0.0314 -0.19782,0.0463 -0.30477,0.0404 -0.13653,-0.008 -0.26445,-0.0487 -0.37565,-0.1152 -0.2366,-0.14152 -0.39703,-0.39824 -0.40138,-0.69194 -0.007,-0.45898 0.36421,-0.83321 0.82289,-0.83321 0.0905,0 0.17749,0.0148 0.25891,0.0416 v -0.67757 -0.24359 c -0.0858,-0.0128 -0.17325,-0.0194 -0.26163,-0.0194 -0.50204,0 -0.97158,0.20869 -1.30722,0.58465 -0.25368,0.2841 -0.40585,0.64659 -0.42933,1.02668 -0.0307,0.49933 0.15195,0.97398 0.5063,1.32417 0.052,0.0515 0.10673,0.0991 0.16389,0.14316 0.3038,0.23379 0.67519,0.36051 1.06636,0.36051 0.0884,0 0.17576,-0.007 0.26163,-0.0193 0.36541,-0.0541 0.70256,-0.22142 0.96864,-0.48445 0.32693,-0.32313 0.50759,-0.75214 0.50954,-1.20874 l -0.005,-2.02772 c 0.15596,0.12031 0.3265,0.21988 0.50954,0.29716 0.28466,0.1201 0.58648,0.18096 0.89713,0.18086 v -0.65878 -0.24445 c 2e-4,2.1e-4 -0.003,2.1e-4 -0.004,2.1e-4 z" />
    </g>
  </g>
</svg>
